# Blender 4.3.2
# www.blender.org
mtllib spaceship.mtl
o Plane.001
v 7.760297 0.116337 -0.014224
v 7.760297 0.116337 -7.639488
v 7.760297 1.225660 -7.639488
v 7.760297 1.225661 -0.014224
v -7.686228 0.116337 0.198510
v -2.645926 0.116338 7.659428
v -2.645926 1.225661 7.659428
v -7.686228 1.225661 0.198510
v 2.589744 0.116337 -7.755825
v -2.580800 0.116337 -7.755825
v -2.580800 3.949180 -7.755826
v 2.589744 3.949180 -7.755826
v 1.838523 1.990533 5.939450
v -1.829579 1.990533 5.939450
v -2.020969 2.211202 5.321426
v -2.580800 1.392838 7.613436
v 2.589744 1.392838 7.613436
v -2.147808 0.000001 6.789744
v -2.580800 -0.000001 -7.639488
v 2.589744 -0.000001 -6.824568
v 2.156752 0.000001 6.789744
v 7.643960 0.116337 -7.755825
v 7.643960 1.277686 -7.755825
v 6.829040 -0.000001 -6.824568
v 6.829040 -0.000000 -0.128429
v -2.464463 0.116338 7.755825
v 2.473407 0.116338 7.755825
v 2.473407 1.225661 7.755825
v -2.464463 1.225661 7.755825
v 2.654870 0.116338 7.659428
v 7.695171 0.116337 0.198510
v 7.695171 1.225661 0.198510
v 2.654870 1.225661 7.659428
v -7.635016 0.116337 -7.755825
v -7.635016 1.277686 -7.755825
v -6.820096 -0.000000 -0.128429
v -6.820096 -0.000001 -6.824568
v 1.539396 3.402930 4.553786
v -1.530452 3.402930 4.553786
v -1.530452 3.402930 4.300232
v 1.539396 3.402930 4.300232
v 7.297189 1.586756 -0.235258
v 3.161574 3.772519 -0.235258
v 2.888026 3.917103 -0.467932
v 2.589744 4.074748 0.102113
v 7.649683 1.400462 0.102113
v -1.829579 3.646293 4.370903
v 1.838523 3.646293 4.370903
v 1.954860 3.861261 0.700025
v -1.945916 3.861261 0.700025
v -7.640739 1.400462 0.102113
v -2.580800 4.074748 0.102113
v -1.945916 3.697628 1.504304
v -1.945916 2.320760 5.360547
v -1.945916 3.526450 4.427420
v 2.029913 2.211202 5.321426
v 1.655734 2.430373 5.275706
v 1.655734 3.286593 4.613048
v 1.655734 3.286593 4.421037
v 1.655734 2.430373 5.083695
v -1.646790 3.286593 4.613048
v -1.646790 2.430373 5.275706
v -1.646790 2.430373 5.083695
v -1.646790 3.286593 4.421037
v 1.539396 2.222037 5.584062
v -1.530452 2.222037 5.584062
v -1.763127 2.501580 5.367713
v -1.829579 2.169483 5.624734
v 1.838523 2.169483 5.624734
v 2.589744 4.074747 -7.639488
v -2.580800 4.074747 -7.639488
v -1.530452 3.494938 4.598917
v 1.539396 3.494938 4.598917
v 1.772071 3.357799 4.705056
v 1.838523 3.547492 4.558246
v -1.829579 3.547492 4.558246
v 1.772071 2.501580 5.367713
v -1.763127 3.357799 4.705056
v -1.530452 2.314036 5.396518
v 1.539396 2.314036 5.396518
v 1.539396 2.314036 5.142965
v -1.530452 2.314036 5.142965
v 1.954860 2.320760 5.360547
v 1.954860 3.697628 1.504304
v 1.954860 3.526450 4.427420
v 7.462023 1.499642 -7.185780
v 7.462023 1.499643 -0.467932
v 7.657439 1.396358 -7.639488
v -2.879081 3.917102 -7.185780
v -2.879081 3.917103 -0.467932
v -3.152630 3.772519 -0.235258
v -7.288245 1.586756 -7.418455
v -3.152630 3.772518 -7.418455
v -7.648496 1.396358 -7.639488
v -7.453080 1.499643 -0.467932
v -7.453080 1.499642 -7.185780
v -7.288245 1.586756 -0.235258
v 2.888026 3.917102 -7.185780
v 3.161574 3.772518 -7.418455
v 7.297189 1.586756 -7.418455
v -7.751353 0.116337 -0.014224
v -7.751353 0.116337 -7.639488
v -7.350222 1.437666 -0.467932
v -7.233884 1.483907 -0.351595
v 7.359165 1.437666 -0.467932
v 7.242828 1.483907 -0.351595
v -7.350222 1.437666 -7.185780
v -7.233884 1.483906 -7.302117
v 7.359165 1.437666 -7.185780
v 7.242828 1.483906 -7.302117
v 3.107213 3.669668 -7.302118
v 2.990876 3.746404 -7.185780
v -3.098269 3.669668 -7.302118
v -2.981932 3.746404 -7.185780
v 2.990876 3.746405 -0.467932
v 3.107213 3.669669 -0.351595
v -2.981932 3.746405 -0.467932
v -3.098269 3.669669 -0.351595
v -1.530452 2.406036 4.955421
v 1.539396 2.406036 4.955421
v -1.530452 3.310931 4.255094
v 1.539396 3.310931 4.255094
v -7.751353 1.225660 -7.639488
v -7.751353 1.225661 -0.014224
v 7.359165 1.079424 -7.185780
v 7.359165 1.079425 -0.467932
v -7.152332 1.067675 -0.808103
v -7.152332 1.067674 -6.845609
v -6.878777 1.212250 -7.078284
v -7.247364 1.017447 -7.185780
v -7.247364 1.017448 -0.467932
v -7.350222 1.079425 -0.467932
v -7.350222 1.079424 -7.185780
v 2.990876 3.388155 -0.467932
v 2.990876 3.388155 -7.185780
v -3.098269 3.341915 -0.351595
v -7.233884 1.156161 -0.351595
v 7.242828 1.156161 -0.351595
v 3.107213 3.341915 -0.351595
v 3.107213 3.341923 -7.302118
v 7.242828 1.156160 -7.302117
v -2.981932 3.388155 -7.185780
v -2.981932 3.388155 -0.467932
v -7.233884 1.156160 -7.302117
v -3.098269 3.341915 -7.302118
v -3.344656 3.080109 -7.078284
v -3.179829 3.167230 -6.845610
v -3.084790 3.217457 -7.185780
v -7.049474 1.238372 -6.845609
v -7.049474 1.238372 -0.808103
v -7.049474 1.671659 -0.808103
v -7.049474 1.671667 -6.845609
v -3.399017 3.182967 -6.961947
v -6.933137 1.315108 -6.961946
v -6.933137 1.717899 -6.961946
v -3.399017 3.585758 -6.961947
v 3.407961 3.182967 -0.691766
v 6.942080 1.315109 -0.691765
v 6.942080 1.717900 -0.691765
v 3.407961 3.585758 -0.691766
v -6.933137 1.315109 -0.691765
v -3.399017 3.182967 -0.691766
v -3.399017 3.585758 -0.691766
v -6.933137 1.717900 -0.691765
v -3.282679 3.229208 -0.808103
v -3.282679 3.229207 -6.845610
v -3.282679 3.662494 -6.845610
v -3.282679 3.662495 -0.808103
v 3.291623 3.229207 -6.845610
v 3.291623 3.229208 -0.808103
v 3.291623 3.662495 -0.808103
v 3.291623 3.662494 -6.845610
v -6.946617 1.842365 -6.845609
v -6.946617 1.842365 -0.808103
v -3.385537 3.724471 -0.808103
v -3.385537 3.724471 -6.845610
v 7.161276 1.067674 -6.845609
v 7.161276 1.067675 -0.808103
v 6.887720 1.212251 -0.575428
v 7.256308 1.017448 -0.467932
v 7.256308 1.017447 -7.185780
v 7.058418 1.238372 -0.808103
v 7.058418 1.238372 -6.845609
v 7.058418 1.671667 -6.845609
v 7.058418 1.671659 -0.808103
v 6.955560 1.842365 -0.808103
v 6.955560 1.842365 -6.845609
v 3.394481 3.724471 -6.845610
v 3.394481 3.724471 -0.808103
v -3.344656 3.080110 -0.575428
v -6.878777 1.212251 -0.575428
v -3.084790 3.217458 -0.467932
v 3.188773 3.167231 -0.808103
v 3.188773 3.167230 -6.845610
v 3.353600 3.080109 -7.078284
v 3.093734 3.217457 -7.185780
v 3.093734 3.217458 -0.467932
v 6.887720 1.212250 -7.078284
v 3.353600 3.080110 -0.575428
v 6.942080 1.315108 -6.961946
v 3.407961 3.182967 -6.961947
v 3.407961 3.585758 -6.961947
v 6.942080 1.717899 -6.961946
v -3.179829 3.167231 -0.808103
v 2.589744 0.000001 7.604664
v 7.643960 0.000000 0.120975
v -2.580800 0.000001 7.604664
v -7.635016 0.000000 0.120975
v -2.580800 -0.000001 -6.824568
v 2.589744 -0.000001 -7.639488
v -7.635016 -0.000001 -7.639488
v 7.643960 -0.000001 -7.639488
v -2.147808 0.297033 6.789744
v -2.580800 0.297032 -6.824568
v 2.589744 0.297032 -6.824568
v 2.156752 0.297033 6.789744
v 6.829040 0.297033 -0.128429
v -6.820096 0.297033 -0.128429
v -6.820096 0.297032 -6.824568
v 6.829040 0.297032 -6.824568
v 0.871821 1.145504 -7.755825
v 0.021814 0.793413 -7.755825
v 0.021814 0.793413 -8.004082
v 0.871821 1.145504 -8.004082
v -0.887401 1.170020 -7.755825
v -1.239485 2.020035 -7.755825
v -1.239485 2.020035 -8.004082
v -0.887401 1.170020 -8.004082
v -0.869873 2.936789 -8.038951
v -0.013258 3.291610 -8.038951
v -0.013258 4.296292 -9.588139
v -1.580291 3.647207 -9.588139
v 1.248429 2.020035 -7.755825
v 0.896345 1.170020 -7.755825
v 0.896345 1.170020 -8.004082
v 1.248429 2.020035 -8.004082
v -0.012870 0.793413 -7.755825
v -0.862877 1.145504 -7.755825
v -0.862877 1.145504 -8.004082
v -0.012870 0.793413 -8.004082
v 0.021814 3.281326 -7.755826
v 0.871821 2.929243 -7.755825
v 0.871821 2.929243 -8.004082
v 0.021814 3.281326 -8.004082
v -1.239485 2.054712 -7.755825
v -0.887401 2.904719 -7.755825
v -0.887401 2.904719 -8.004082
v -1.239485 2.054711 -8.004082
v 0.896345 2.904719 -7.755825
v 1.248429 2.054712 -7.755825
v 1.248429 2.054711 -8.004082
v 0.896345 2.904719 -8.004082
v -1.588063 3.654428 -9.623001
v -0.012870 4.306894 -9.623001
v -0.012870 4.306894 -12.127093
v -1.588063 3.654428 -12.127093
v 1.258705 2.019647 -8.038951
v 0.903884 1.163032 -8.038951
v 1.614310 0.452606 -9.588139
v 2.263395 2.019647 -9.588139
v -0.013258 0.783136 -8.038951
v -0.869873 1.137957 -8.038951
v -1.580291 0.427539 -9.588139
v -0.013258 -0.221554 -9.588139
v 0.022202 3.291610 -8.038951
v 0.878817 2.936781 -8.038951
v 1.589235 3.647207 -9.588139
v 0.022202 4.296292 -9.588139
v -1.249761 2.055099 -8.038951
v -0.894940 2.911715 -8.038951
v -1.605366 3.622140 -9.588139
v -2.254451 2.055099 -9.588139
v 0.903884 2.911715 -8.038951
v 1.258705 2.055099 -8.038951
v 2.263395 2.055099 -9.588139
v 1.614310 3.622140 -9.588139
v 0.878817 1.137957 -8.038951
v 0.022202 0.783136 -8.038951
v 0.022202 -0.221554 -9.588139
v 1.589235 0.427539 -9.588139
v -0.894940 1.163032 -8.038951
v -1.249761 2.019647 -8.038951
v -2.254451 2.019647 -9.588139
v -1.605366 0.452606 -9.588139
v -1.612587 0.444835 -9.623001
v -2.265053 2.020035 -9.623001
v -2.265053 2.020035 -12.127093
v -1.612587 0.444834 -12.127093
v -1.135882 3.202247 -12.127093
v -0.012870 3.667411 -12.127093
v -0.012870 3.667411 -11.705254
v -1.135882 3.202247 -11.705254
v 2.273997 2.020035 -9.623001
v 1.621530 0.444835 -9.623001
v 1.621530 0.444834 -12.127093
v 2.273997 2.020035 -12.127093
v -0.012870 -0.232156 -9.623001
v -1.588063 0.420318 -9.623001
v -1.588063 0.420318 -12.127093
v -0.012870 -0.232156 -12.127093
v 0.021814 4.306894 -9.623001
v 1.597006 3.654428 -9.623001
v 1.597006 3.654428 -12.127093
v 0.021814 4.306894 -12.127093
v -2.265053 2.054711 -9.623001
v -1.612587 3.629911 -9.623001
v -1.612587 3.629911 -12.127093
v -2.265053 2.054711 -12.127093
v 1.621530 3.629911 -9.623001
v 2.273997 2.054711 -9.623001
v 2.273997 2.054711 -12.127093
v 1.621530 3.629911 -12.127093
v 1.597006 0.420318 -9.623001
v 0.021814 -0.232156 -9.623001
v 0.021814 -0.232156 -12.127093
v 1.597006 0.420318 -12.127093
v -0.012870 0.407335 -12.127093
v -1.135882 0.872498 -12.127093
v -1.135882 0.872498 -11.705254
v -0.012870 0.407335 -11.705254
v 0.021814 3.667411 -12.127093
v 1.144826 3.202247 -12.127093
v 1.144826 3.202247 -11.705254
v 0.021814 3.667411 -11.705254
v -1.642904 2.012853 -12.145855
v -1.177741 0.889840 -12.145855
v -1.143064 0.855164 -12.145855
v -1.591041 0.441864 -12.145855
v -2.251922 2.037369 -12.145855
v -1.160399 0.897022 -12.127093
v -1.625570 2.020035 -12.127093
v -1.625570 2.020035 -11.705254
v -1.160399 0.897022 -11.705254
v 1.144826 0.872498 -12.127093
v 0.021814 0.407335 -12.127093
v 0.021814 0.407335 -11.705254
v 1.144826 0.872498 -11.705254
v 1.634514 2.020035 -12.127093
v 1.169343 0.897022 -12.127093
v 1.169343 0.897022 -11.705254
v 1.634514 2.020035 -11.705254
v 1.169343 3.177723 -12.127093
v 1.634514 2.054711 -12.127093
v 1.634514 2.054711 -11.705254
v 1.169343 3.177723 -11.705254
v -1.138853 3.180701 -11.686485
v 0.004472 3.654280 -11.686485
v 1.147797 3.180701 -11.686485
v 1.621375 2.037369 -11.686485
v 1.147797 0.894044 -11.686485
v 0.004472 0.420466 -11.686485
v -1.138853 0.894044 -11.686485
v -1.612432 2.037369 -11.686485
v -1.625570 2.054711 -12.127093
v -1.160399 3.177723 -12.127093
v -1.160399 3.177723 -11.705254
v -1.625570 2.054711 -11.705254
v -0.020052 3.684753 -12.145855
v -1.143064 3.219582 -12.145855
v -1.177741 3.184905 -12.145855
v -1.591041 3.632882 -12.145855
v 0.004472 4.293764 -12.145855
v 1.152008 3.219582 -12.145855
v 0.028996 3.684753 -12.145855
v 1.599985 3.632882 -12.145855
v 1.186685 0.889840 -12.145855
v 1.651848 2.012853 -12.145855
v 1.651848 2.061893 -12.145855
v 2.260866 2.037369 -12.145855
v 1.599985 0.441864 -12.145855
v -0.020052 0.389993 -12.145855
v 0.028996 0.389993 -12.145855
v 0.004472 -0.219018 -12.145855
v -1.642904 2.061893 -12.145855
v 1.186685 3.184905 -12.145855
v 1.152008 0.855164 -12.145855
v -0.012870 3.281326 -8.004082
v -0.862877 2.929243 -8.004082
v -0.862877 2.929243 -7.755825
v -0.012870 3.281326 -7.755826
v 4.933268 0.786200 -7.755825
v 4.312111 0.528908 -7.755825
v 4.312111 0.528908 -7.937242
v 4.933268 0.786200 -7.937242
v 3.647693 0.804116 -7.755825
v 3.390402 1.425272 -7.755825
v 3.390402 1.425272 -7.937242
v 3.647693 0.804116 -7.937242
v 3.660498 2.095205 -7.962720
v 4.286486 2.354497 -7.962720
v 4.286486 3.088687 -9.094813
v 3.141354 2.614356 -9.094813
v 5.208475 1.425272 -7.755825
v 4.951183 0.804116 -7.755825
v 4.951183 0.804116 -7.937242
v 5.208475 1.425272 -7.937242
v 4.286765 0.528908 -7.755825
v 3.665609 0.786200 -7.755825
v 3.665609 0.786200 -7.937242
v 4.286765 0.528908 -7.937242
v 4.312111 2.346982 -7.755825
v 4.933268 2.089690 -7.755825
v 4.933268 2.089690 -7.937242
v 4.312111 2.346982 -7.937242
v 3.390402 1.450618 -7.755825
v 3.647693 2.071774 -7.755825
v 3.647693 2.071774 -7.937242
v 3.390402 1.450618 -7.937242
v 4.951183 2.071774 -7.755825
v 5.208475 1.450618 -7.755825
v 5.208475 1.450618 -7.937242
v 4.951183 2.071774 -7.937242
v 3.135669 2.619630 -9.120292
v 4.286765 3.096427 -9.120292
v 4.286765 3.096427 -10.950185
v 3.135669 2.619630 -10.950185
v 5.215991 1.424993 -7.962720
v 4.956698 0.799004 -7.962720
v 5.475850 0.279860 -9.094813
v 5.950180 1.424993 -9.094813
v 4.286486 0.521393 -7.962720
v 3.660498 0.780685 -7.962720
v 3.141354 0.261533 -9.094813
v 4.286486 -0.212789 -9.094813
v 4.312390 2.354497 -7.962720
v 4.938379 2.095205 -7.962720
v 5.457530 2.614356 -9.094813
v 4.312390 3.088687 -9.094813
v 3.382894 1.450897 -7.962720
v 3.642179 2.076885 -7.962720
v 3.123035 2.596037 -9.094813
v 2.648704 1.450897 -9.094813
v 4.956698 2.076885 -7.962720
v 5.215991 1.450897 -7.962720
v 5.950180 1.450897 -9.094813
v 5.475850 2.596037 -9.094813
v 4.938379 0.780685 -7.962720
v 4.312390 0.521393 -7.962720
v 4.312390 -0.212789 -9.094813
v 5.457530 0.261533 -9.094813
v 3.642179 0.799004 -7.962720
v 3.382894 1.424993 -7.962720
v 2.648704 1.424993 -9.094813
v 3.123035 0.279860 -9.094813
v 3.117753 0.274175 -9.120292
v 2.640956 1.425272 -9.120292
v 2.640956 1.425272 -10.950185
v 3.117753 0.274175 -10.950185
v 3.466114 2.289193 -10.950185
v 4.286765 2.629116 -10.950185
v 4.286765 2.629116 -10.641923
v 3.466114 2.289193 -10.641923
v 5.957921 1.425272 -9.120292
v 5.481124 0.274175 -9.120292
v 5.481124 0.274175 -10.950185
v 5.957921 1.425272 -10.950185
v 4.286765 -0.220538 -9.120292
v 3.135669 0.256260 -9.120292
v 3.135669 0.256259 -10.950185
v 4.286765 -0.220538 -10.950185
v 4.312111 3.096427 -9.120292
v 5.463207 2.619630 -9.120292
v 5.463207 2.619630 -10.950185
v 4.312111 3.096427 -10.950185
v 2.640956 1.450618 -9.120292
v 3.117753 2.601714 -9.120292
v 3.117753 2.601714 -10.950185
v 2.640956 1.450618 -10.950185
v 5.481124 2.601714 -9.120292
v 5.957921 1.450618 -9.120292
v 5.957921 1.450618 -10.950185
v 5.481124 2.601714 -10.950185
v 5.463207 0.256260 -9.120292
v 4.312111 -0.220538 -9.120292
v 4.312111 -0.220538 -10.950185
v 5.463207 0.256259 -10.950185
v 4.286765 0.246774 -10.950185
v 3.466114 0.586696 -10.950185
v 3.466114 0.586696 -10.641923
v 4.286765 0.246774 -10.641923
v 4.312111 2.629116 -10.950185
v 5.132763 2.289193 -10.950185
v 5.132763 2.289193 -10.641923
v 4.312111 2.629116 -10.641923
v 3.095595 1.420029 -10.963898
v 3.435525 0.599369 -10.963898
v 3.460863 0.574031 -10.963898
v 3.133497 0.272004 -10.963898
v 2.650550 1.437945 -10.963898
v 3.448190 0.604620 -10.950185
v 3.108268 1.425272 -10.950185
v 3.108268 1.425272 -10.641923
v 3.448190 0.604620 -10.641923
v 5.132763 0.586696 -10.950185
v 4.312111 0.246774 -10.950185
v 4.312111 0.246774 -10.641923
v 5.132763 0.586696 -10.641923
v 5.490609 1.425272 -10.950185
v 5.150686 0.604620 -10.950185
v 5.150686 0.604620 -10.641923
v 5.490609 1.425272 -10.641923
v 5.150686 2.271269 -10.950185
v 5.490609 1.450618 -10.950185
v 5.490609 1.450618 -10.641923
v 5.150686 2.271269 -10.641923
v 3.463942 2.273449 -10.628211
v 4.299438 2.619521 -10.628211
v 5.134943 2.273449 -10.628211
v 5.481015 1.437945 -10.628211
v 5.134943 0.602448 -10.628211
v 4.299438 0.256368 -10.628211
v 3.463942 0.602448 -10.628211
v 3.117862 1.437945 -10.628211
v 3.108268 1.450618 -10.950185
v 3.448190 2.271269 -10.950185
v 3.448190 2.271269 -10.641923
v 3.108268 1.450618 -10.641923
v -3.656665 2.089690 -7.755825
v -3.656665 2.089690 -7.937242
v -4.277822 2.346982 -7.937242
v -4.277822 2.346982 -7.755825
v 4.281522 2.641788 -10.963898
v 3.460863 2.301858 -10.963898
v 3.435525 2.276520 -10.963898
v 3.133497 2.603886 -10.963898
v 4.299438 3.086833 -10.963898
v 5.138013 2.301858 -10.963898
v 4.317354 2.641788 -10.963898
v 5.465379 2.603886 -10.963898
v 5.163352 0.599369 -10.963898
v 5.503282 1.420029 -10.963898
v 5.503282 1.455861 -10.963898
v 5.948327 1.437945 -10.963898
v 5.465379 0.272004 -10.963898
v 4.281522 0.234101 -10.963898
v 4.317354 0.234101 -10.963898
v 4.299438 -0.210944 -10.963898
v 3.095595 1.455861 -10.963898
v 5.163352 2.276520 -10.963898
v 5.138013 0.574031 -10.963898
v -4.924324 0.786200 -7.755825
v -4.924324 0.786200 -7.937242
v -4.303168 0.528908 -7.937242
v -4.303168 0.528908 -7.755825
v -3.638749 0.804116 -7.755825
v -3.638749 0.804116 -7.937242
v -3.381458 1.425272 -7.937242
v -3.381458 1.425272 -7.755825
v -3.651554 2.095205 -7.962720
v -3.132410 2.614356 -9.094813
v -4.277543 3.088687 -9.094813
v -4.277543 2.354497 -7.962720
v -5.199532 1.425272 -7.755825
v -5.199532 1.425272 -7.937242
v -4.942240 0.804116 -7.937242
v -4.942240 0.804116 -7.755825
v -4.277822 0.528908 -7.755825
v -4.277822 0.528908 -7.937242
v -3.656665 0.786200 -7.937242
v -3.656665 0.786200 -7.755825
v -4.303168 2.346982 -7.755825
v -4.303168 2.346982 -7.937242
v -4.924324 2.089690 -7.937242
v -4.924324 2.089690 -7.755825
v -3.381458 1.450618 -7.755825
v -3.381458 1.450618 -7.937242
v -3.638749 2.071774 -7.937242
v -3.638749 2.071774 -7.755825
v -4.942240 2.071774 -7.755825
v -4.942240 2.071774 -7.937242
v -5.199532 1.450618 -7.937242
v -5.199532 1.450618 -7.755825
v -3.126725 2.619630 -9.120292
v -3.126725 2.619630 -10.950185
v -4.277822 3.096427 -10.950185
v -4.277822 3.096427 -9.120292
v -5.207047 1.424993 -7.962720
v -5.941236 1.424993 -9.094813
v -5.466906 0.279860 -9.094813
v -4.947754 0.799004 -7.962720
v -4.277543 0.521393 -7.962720
v -4.277543 -0.212789 -9.094813
v -3.132410 0.261533 -9.094813
v -3.651554 0.780685 -7.962720
v -4.303447 2.354497 -7.962720
v -4.303447 3.088687 -9.094813
v -5.448586 2.614356 -9.094813
v -4.929435 2.095205 -7.962720
v -3.373950 1.450897 -7.962720
v -2.639760 1.450897 -9.094813
v -3.114091 2.596037 -9.094813
v -3.633235 2.076885 -7.962720
v -4.947754 2.076885 -7.962720
v -5.466906 2.596037 -9.094813
v -5.941236 1.450897 -9.094813
v -5.207047 1.450897 -7.962720
v -4.929435 0.780685 -7.962720
v -5.448586 0.261533 -9.094813
v -4.303447 -0.212789 -9.094813
v -4.303447 0.521393 -7.962720
v -3.633235 0.799004 -7.962720
v -3.114091 0.279860 -9.094813
v -2.639760 1.424993 -9.094813
v -3.373950 1.424993 -7.962720
v -3.108809 0.274175 -9.120292
v -3.108809 0.274175 -10.950185
v -2.632012 1.425272 -10.950185
v -2.632012 1.425272 -9.120292
v -3.457170 2.289193 -10.950185
v -3.457170 2.289193 -10.641923
v -4.277822 2.629116 -10.641923
v -4.277822 2.629116 -10.950185
v -5.948977 1.425272 -9.120292
v -5.948977 1.425272 -10.950185
v -5.472180 0.274175 -10.950185
v -5.472180 0.274175 -9.120292
v -4.277822 -0.220538 -9.120292
v -4.277822 -0.220538 -10.950185
v -3.126725 0.256259 -10.950185
v -3.126725 0.256260 -9.120292
v -4.303168 3.096427 -9.120292
v -4.303168 3.096427 -10.950185
v -5.454264 2.619630 -10.950185
v -5.454264 2.619630 -9.120292
v -2.632012 1.450618 -9.120292
v -2.632012 1.450618 -10.950185
v -3.108809 2.601714 -10.950185
v -3.108809 2.601714 -9.120292
v -5.472180 2.601714 -9.120292
v -5.472180 2.601714 -10.950185
v -5.948977 1.450618 -10.950185
v -5.948977 1.450618 -9.120292
v -5.454264 0.256260 -9.120292
v -5.454264 0.256259 -10.950185
v -4.303168 -0.220538 -10.950185
v -4.303168 -0.220538 -9.120292
v -4.277822 0.246774 -10.950185
v -4.277822 0.246774 -10.641923
v -3.457170 0.586696 -10.641923
v -3.457170 0.586704 -10.950185
v -4.303168 2.629116 -10.950185
v -4.303168 2.629116 -10.641923
v -5.123819 2.289193 -10.641923
v -5.123819 2.289193 -10.950185
v -3.086651 1.420029 -10.963898
v -3.086651 1.455861 -10.963898
v -2.641606 1.437945 -10.963898
v -3.124553 0.272004 -10.963898
v -3.426581 0.599369 -10.963898
v -3.439246 0.604620 -10.950185
v -3.439246 0.604620 -10.641923
v -3.099324 1.425272 -10.641923
v -3.099324 1.425272 -10.950185
v -5.123819 0.586704 -10.950185
v -5.123819 0.586704 -10.641923
v -4.303168 0.246774 -10.641923
v -4.303168 0.246774 -10.950185
v -5.481665 1.425272 -10.950185
v -5.481665 1.425272 -10.641923
v -5.141743 0.604620 -10.641923
v -5.141743 0.604620 -10.950185
v -5.141743 2.271269 -10.950185
v -5.141743 2.271269 -10.641923
v -5.481665 1.450618 -10.641923
v -5.481665 1.450618 -10.950185
v -3.454991 2.273449 -10.628211
v -3.108918 1.437945 -10.628211
v -3.454991 0.602448 -10.628211
v -4.290494 0.256368 -10.628211
v -5.125999 0.602448 -10.628211
v -5.472072 1.437945 -10.628211
v -5.125999 2.273449 -10.628211
v -4.290494 2.619521 -10.628211
v -4.272579 2.641788 -10.963898
v -4.308411 2.641788 -10.963898
v -4.290494 3.086833 -10.963898
v -3.124553 2.603886 -10.963898
v -3.451919 2.301858 -10.963898
v -5.129070 2.301858 -10.963898
v -5.154408 2.276520 -10.963898
v -5.456436 2.603886 -10.963898
v -3.099324 1.450618 -10.950185
v -3.099324 1.450618 -10.641923
v -3.439246 2.271269 -10.641923
v -3.439246 2.271269 -10.950185
v -5.154408 0.599369 -10.963898
v -5.129070 0.574031 -10.963898
v -5.456436 0.272004 -10.963898
v -5.939383 1.437945 -10.963898
v -5.494339 1.420029 -10.963898
v -3.451919 0.574031 -10.963898
v -4.290494 -0.210944 -10.963898
v -4.272579 0.234101 -10.963898
v -3.426581 2.276520 -10.963898
v -5.494339 1.455861 -10.963898
v -4.308411 0.234101 -10.963898
v 4.286765 2.346982 -7.937242
v 3.665609 2.089690 -7.937242
v 3.665609 2.089690 -7.755825
v 4.286765 2.346982 -7.755825
vn 1.0000 -0.0000 -0.0000
vn -0.8286 -0.0000 0.5598
vn -0.0000 -0.0000 -1.0000
vn -0.0000 0.9418 0.3363
vn -0.0000 -0.0000 1.0000
vn -0.7071 -0.0000 0.7071
vn 0.9562 -0.0000 -0.2927
vn 0.7071 -0.0000 0.7071
vn 0.8286 -0.0000 0.5598
vn -0.9562 -0.0000 -0.2927
vn -0.4692 -0.0000 -0.8831
vn -0.0000 -1.0000 -0.0000
vn 0.4673 0.8841 -0.0000
vn 0.4456 0.8431 0.3010
vn -0.0000 0.9983 0.0585
vn -0.4456 0.8431 0.3010
vn -1.0000 -0.0000 -0.0000
vn -0.0000 0.6120 0.7908
vn -0.0000 1.0000 -0.0000
vn -0.4673 0.8841 -0.0000
vn -0.8141 -0.5245 0.2492
vn 0.8141 -0.5245 0.2492
vn -0.5774 -0.5773 -0.5774
vn 0.5774 -0.5773 -0.5774
vn -0.3882 -0.5614 0.7308
vn 0.3882 -0.5614 0.7308
vn 0.3555 0.7411 -0.5696
vn -0.3555 0.7411 -0.5696
vn 0.3555 0.7411 0.5696
vn -0.3555 0.7411 0.5696
vn 0.5768 0.7611 0.2966
vn -0.5768 0.7611 0.2966
vn 0.7274 0.3737 0.5756
vn -0.7274 0.3737 0.5756
vn -0.4317 0.3917 0.8126
vn 0.4317 0.3917 0.8126
vn 0.7274 0.3737 -0.5756
vn -0.7274 0.3737 -0.5756
vn 0.5613 -0.2601 0.7857
vn -0.5613 -0.2601 0.7857
vn -0.6230 0.6189 0.4783
vn 0.6230 0.6189 0.4783
vn -0.5649 0.7299 0.3849
vn 0.5649 0.7299 0.3849
vn 0.5586 0.7447 0.3653
vn -0.5586 0.7447 0.3653
vn 0.8083 -0.2594 0.5286
vn -0.8083 -0.2594 0.5286
vn -0.7261 0.4375 -0.5304
vn -0.8846 0.3796 0.2708
vn 0.8846 0.3796 0.2708
vn 0.7261 0.4375 -0.5304
vn -0.7071 -0.7071 -0.0000
vn 0.6685 -0.5910 0.4515
vn 0.7071 -0.7071 -0.0000
vn -0.0000 -0.7071 -0.7071
vn -0.6685 -0.5910 0.4515
vn -0.0000 -0.7925 0.6099
vn -0.8508 0.5256 0.0003
vn 0.7411 0.4480 0.5002
vn 0.8508 0.5256 0.0003
vn -0.3379 0.6393 -0.6907
vn -0.7411 0.4480 0.5002
vn -0.0000 0.6484 0.7613
vn 0.3379 0.6393 -0.6907
vn -0.0000 0.6796 -0.7336
vn 0.4691 -0.0000 0.8831
vn -0.4691 -0.0000 0.8831
vn -0.7071 -0.0000 -0.7071
vn 0.9562 -0.0000 0.2927
vn 0.7071 -0.0000 -0.7071
vn -0.9562 -0.0000 0.2927
vn -0.0000 0.8693 0.4943
vn 0.9433 0.3151 0.1041
vn -0.9433 0.3151 0.1041
vn -0.0000 0.8845 0.4665
vn 0.7071 0.4328 0.5592
vn -0.7071 0.4328 0.5592
vn 0.8700 0.4910 0.0441
vn -0.8701 0.4910 0.0441
vn -0.0000 0.8978 0.4404
vn -0.0000 -0.4404 0.8978
vn -0.0000 -0.4405 0.8978
vn 0.7071 0.7071 -0.0000
vn -0.7071 0.7071 -0.0000
vn 0.5161 0.8565 -0.0000
vn -0.5161 0.8565 -0.0000
vn -0.3304 0.6252 0.7071
vn 0.3304 0.6252 0.7071
vn -0.8565 0.5161 -0.0000
vn 0.8565 0.5161 -0.0000
vn 0.3304 0.6252 -0.7071
vn -0.3304 0.6252 -0.7071
vn 0.4692 -0.0000 -0.8831
vn 0.4672 0.8841 -0.0000
vn -0.4672 0.8841 -0.0000
vn 0.3505 0.5816 0.7341
vn 0.3505 0.5816 -0.7341
vn -0.3505 0.5816 -0.7341
vn -0.3505 0.5816 0.7341
vn -0.7177 0.4325 0.5458
vn 0.7177 0.4325 0.5458
vn -0.7177 0.4325 -0.5458
vn 0.7177 0.4325 -0.5458
vn -0.7177 0.4324 0.5458
vn 0.7177 0.4324 0.5458
vn 0.3827 -0.9239 -0.0000
vn -0.9239 -0.3827 -0.0000
vn -0.3283 0.7925 0.5140
vn 0.9239 -0.3827 -0.0000
vn -0.3827 -0.9239 -0.0000
vn 0.3827 0.9239 -0.0000
vn -0.9239 0.3827 -0.0000
vn 0.9239 0.3827 -0.0000
vn -0.3827 0.9239 -0.0000
vn 0.7925 -0.3283 0.5140
vn -0.3283 -0.7925 0.5140
vn 0.3283 0.7925 0.5140
vn -0.7925 0.3283 0.5140
vn 0.7925 0.3283 0.5140
vn 0.3283 -0.7925 0.5140
vn -0.7925 -0.3283 0.5140
vn -0.0000 0.9592 0.2829
vn -0.6783 0.6782 0.2828
vn -0.9592 -0.0000 0.2827
vn -0.6783 -0.6783 0.2827
vn -0.0000 -0.9592 0.2827
vn 0.6783 -0.6783 0.2827
vn 0.9592 -0.0000 0.2827
vn 0.6783 0.6783 0.2827
vn -0.0000 0.9567 0.2910
vn -0.6764 0.6766 0.2909
vn -0.9567 -0.0000 0.2910
vn -0.6764 -0.6766 0.2909
vn -0.0000 -0.9567 0.2910
vn 0.6764 -0.6766 0.2909
vn 0.9567 -0.0000 0.2910
vn 0.6764 0.6766 0.2909
vn -0.0000 -0.7343 -0.6788
vn 0.5193 -0.5193 -0.6787
vn 0.7345 -0.0000 -0.6786
vn 0.5193 0.5193 -0.6787
vn -0.0000 0.7343 -0.6788
vn -0.5193 0.5193 -0.6787
vn -0.7345 -0.0000 -0.6786
vn -0.5193 -0.5193 -0.6787
vn -0.5795 0.5794 -0.5732
vn -0.0000 0.8193 -0.5734
vn -0.8193 -0.0000 -0.5734
vn -0.5792 -0.5794 -0.5734
vn -0.0000 -0.8193 -0.5733
vn 0.5792 -0.5794 -0.5734
vn 0.8193 -0.0000 -0.5734
vn 0.5795 0.5794 -0.5732
vn -0.0000 -0.8194 -0.5732
vn 0.5795 -0.5793 -0.5733
vn 0.8192 -0.0000 -0.5735
vn 0.5795 0.5793 -0.5733
vn -0.0000 0.8194 -0.5732
vn -0.5795 0.5793 -0.5733
vn -0.8192 -0.0000 -0.5735
vn -0.5795 -0.5793 -0.5733
vn -0.3688 0.8904 0.2667
vn -0.8905 0.3688 0.2665
vn -0.8905 -0.3688 0.2665
vn -0.3688 -0.8904 0.2666
vn 0.3688 -0.8904 0.2666
vn 0.8905 -0.3688 0.2665
vn 0.8905 0.3688 0.2665
vn 0.3688 0.8904 0.2666
vn -0.7070 -0.7072 -0.0000
vn 0.7070 -0.7072 -0.0000
vn -0.8904 0.3688 0.2667
vn -0.8904 -0.3688 0.2667
vn -0.3688 -0.8904 0.2667
vn 0.3688 -0.8904 0.2667
vn 0.8904 -0.3688 0.2667
vn 0.8904 0.3688 0.2667
vn 0.3688 0.8904 0.2667
vn 0.8390 -0.0000 0.5441
vn 0.5932 0.5933 0.5441
vn -0.0000 -0.8390 0.5441
vn 0.5933 -0.5933 0.5441
vn -0.8390 -0.0000 0.5441
vn -0.5933 -0.5933 0.5441
vn -0.0000 0.8390 0.5441
vn -0.5933 0.5933 0.5441
vn -0.2706 0.6532 -0.7072
vn -0.6532 0.2705 -0.7072
vn -0.6532 -0.2706 -0.7072
vn -0.2705 -0.6531 -0.7073
vn 0.2705 -0.6531 -0.7073
vn 0.6532 -0.2706 -0.7072
vn 0.6532 0.2705 -0.7072
vn 0.2706 0.6532 -0.7072
vn -0.7070 0.7072 -0.0000
vn 0.7070 0.7072 -0.0000
vn 0.2706 -0.6532 -0.7072
vn 0.6532 0.2706 -0.7072
vn -0.6532 0.2706 -0.7072
vn -0.2706 -0.6532 -0.7072
vn 0.2706 -0.6533 -0.7071
vn 0.6532 -0.2706 -0.7071
vn 0.6533 0.2706 -0.7071
vn 0.2706 0.6533 -0.7071
vn -0.2706 0.6533 -0.7071
vn -0.6533 0.2706 -0.7071
vn -0.6532 -0.2706 -0.7071
vn -0.2706 -0.6533 -0.7071
vn 0.7072 0.7070 -0.0000
vn 0.7072 -0.7070 -0.0000
vn -0.7072 -0.7070 -0.0000
vn -0.7072 0.7070 -0.0000
vn -0.0000 0.9591 0.2829
vn -0.6782 0.6782 0.2829
vn -0.6782 -0.6782 0.2828
vn -0.0000 -0.9591 0.2829
vn 0.6782 -0.6782 0.2828
vn 0.9591 -0.0000 0.2829
vn 0.6782 0.6783 0.2829
vn -0.0000 0.9568 0.2907
vn -0.6765 0.6765 0.2910
vn -0.6766 -0.6764 0.2911
vn -0.0000 -0.9567 0.2909
vn 0.6766 -0.6765 0.2909
vn 0.9567 -0.0000 0.2911
vn 0.6765 0.6766 0.2908
vn -0.0000 -0.7344 -0.6787
vn 0.5193 -0.5194 -0.6786
vn 0.7344 -0.0000 -0.6787
vn 0.5194 0.5194 -0.6786
vn -0.0000 0.7344 -0.6787
vn -0.5194 0.5194 -0.6786
vn -0.7344 -0.0000 -0.6787
vn -0.5193 -0.5194 -0.6786
vn -0.5794 0.5793 -0.5734
vn -0.0000 0.8193 -0.5733
vn -0.8194 -0.0000 -0.5732
vn -0.5793 -0.5793 -0.5734
vn -0.0000 -0.8194 -0.5733
vn 0.5793 -0.5793 -0.5734
vn 0.8194 -0.0000 -0.5732
vn 0.5794 0.5793 -0.5734
vn 0.8193 -0.0000 -0.5733
vn 0.5791 0.5792 -0.5737
vn -0.0000 0.8194 -0.5733
vn -0.5793 0.5793 -0.5734
vn -0.8193 -0.0000 -0.5733
vn -0.5794 -0.5794 -0.5732
vn 0.6782 0.6782 0.2829
vn 0.9591 -0.0000 0.2832
vn -0.9591 -0.0000 0.2829
vn -0.6782 0.6782 0.2828
vn 0.6765 0.6765 0.2910
vn 0.6766 -0.6764 0.2911
vn -0.6766 -0.6765 0.2909
vn -0.6765 0.6766 0.2908
vn -0.5193 0.5194 -0.6787
vn 0.5193 0.5194 -0.6787
vn 0.5194 -0.5194 -0.6786
vn 0.5792 0.5795 -0.5733
vn 0.5794 -0.5794 -0.5732
vn -0.8904 0.3688 0.2666
vn -0.8905 -0.3688 0.2666
vn -0.3688 0.8905 0.2666
vn -0.8904 -0.3688 0.2668
vn 0.8904 -0.3688 0.2666
vn 0.3688 0.8905 0.2665
vn 0.5933 0.5933 0.5441
vn 0.5933 -0.5932 0.5441
vn -0.5933 -0.5932 0.5441
vn -0.6533 -0.2706 -0.7071
vn 0.6533 -0.2706 -0.7071
vn 0.6531 0.2706 -0.7073
vn 0.2705 0.6532 -0.7072
vn 0.8904 0.3688 0.2666
vn 0.8905 -0.3688 0.2666
vn 0.3688 0.8905 0.2666
vn 0.8904 -0.3688 0.2668
vn -0.8904 -0.3688 0.2666
vn -0.3688 0.8905 0.2665
vn 0.7070 0.7073 -0.0000
vt 0.799492 0.746424
vt 0.796508 0.896982
vt 0.774488 0.896709
vt 0.777471 0.746151
vt 0.834672 0.742068
vt 0.837758 0.582729
vt 0.859779 0.582456
vt 0.856692 0.741795
vt 0.611199 0.788139
vt 0.611199 0.685297
vt 0.687433 0.685297
vt 0.687433 0.788139
vt 0.188695 0.037798
vt 0.115737 0.037798
vt 0.111930 0.050557
vt 0.100795 0.003240
vt 0.203637 0.003240
vt 0.983852 0.226659
vt 0.983852 0.310977
vt 0.977961 0.310977
vt 0.977961 0.226659
vt 0.611199 0.888666
vt 0.634298 0.888666
vt 0.955269 0.708143
vt 0.958237 0.840349
vt 0.952343 0.840525
vt 0.949375 0.708319
vt 0.604676 0.727899
vt 0.604676 0.826112
vt 0.582675 0.826112
vt 0.582675 0.727899
vt 0.796411 0.582729
vt 0.799497 0.742068
vt 0.777477 0.741795
vt 0.774391 0.582456
vt 0.611199 0.584770
vt 0.634298 0.584770
vt 0.943482 0.708143
vt 0.940514 0.582456
vt 0.946408 0.582632
vt 0.949376 0.708319
vt 0.071907 0.974721
vt 0.071907 0.913662
vt 0.076917 0.913662
vt 0.076917 0.974721
vt 0.297267 0.158527
vt 0.215010 0.164176
vt 0.209569 0.169139
vt 0.203637 0.158304
vt 0.304278 0.151392
vt 0.115737 0.073011
vt 0.188695 0.073011
vt 0.191009 0.145961
vt 0.113423 0.145961
vt 0.000154 0.151392
vt 0.100795 0.158304
vt 0.926782 0.405312
vt 0.926904 0.324209
vt 0.943130 0.349817
vt 0.192502 0.050557
vt 0.614457 0.274722
vt 0.614457 0.296250
vt 0.611463 0.298578
vt 0.611463 0.277049
vt 0.619655 0.296250
vt 0.619655 0.274722
vt 0.622649 0.277049
vt 0.622649 0.298578
vt 0.949596 0.177411
vt 0.949596 0.116352
vt 0.944379 0.111724
vt 0.950576 0.110403
vt 0.950576 0.183360
vt 0.203637 0.310977
vt 0.100795 0.310977
vt 0.925840 0.116352
vt 0.925840 0.177411
vt 0.928399 0.182039
vt 0.924859 0.183360
vt 0.924859 0.110403
vt 0.944379 0.182039
vt 0.928399 0.111724
vt 0.306921 0.976192
vt 0.306921 0.915133
vt 0.311922 0.915133
vt 0.311922 0.976192
vt 0.943167 0.013232
vt 0.943290 0.094334
vt 0.926942 0.038840
vt 0.300545 0.295373
vt 0.300545 0.162890
vt 0.304432 0.304054
vt 0.094863 0.301622
vt 0.094863 0.169139
vt 0.089422 0.164176
vt 0.007165 0.300187
vt 0.089422 0.305837
vt -0.000000 0.304054
vt 0.003887 0.162890
vt 0.003887 0.295373
vt 0.007165 0.158527
vt 0.209569 0.301622
vt 0.215010 0.305837
vt 0.297267 0.300187
vt 0.834678 0.746423
vt 0.832454 0.743505
vt 0.801715 0.743505
vt 0.611199 0.582456
vt 0.608885 0.584770
vt 0.611199 0.890980
vt 0.608885 0.888666
vt 0.604821 0.724290
vt 0.607211 0.725585
vt 0.604821 0.829721
vt 0.607211 0.828426
vt 0.005933 0.162730
vt 0.008247 0.160555
vt 0.298499 0.162730
vt 0.296186 0.160555
vt 0.005933 0.295213
vt 0.008247 0.297627
vt 0.298499 0.295213
vt 0.296186 0.297627
vt 0.309605 0.978506
vt 0.307974 0.980820
vt 0.302985 0.976192
vt 0.302985 0.915133
vt 0.307974 0.910505
vt 0.309605 0.912819
vt 0.963420 0.721873
vt 0.961446 0.724314
vt 0.958237 0.719094
vt 0.961753 0.719312
vt 0.969892 0.183901
vt 0.971560 0.181340
vt 0.975076 0.181122
vt 0.971867 0.186342
vt 0.582821 0.724290
vt 0.579575 0.725585
vt 0.579575 0.828426
vt 0.582821 0.829721
vt 0.961753 0.586644
vt 0.958237 0.586426
vt 0.961446 0.582456
vt 0.963420 0.584610
vt 0.971560 0.048672
vt 0.969892 0.046638
vt 0.971867 0.044484
vt 0.975076 0.048455
vt 0.927733 0.116352
vt 0.929950 0.114038
vt 0.927732 0.177411
vt 0.929950 0.179725
vt 0.926081 0.318053
vt 0.924455 0.324321
vt 0.924850 0.310977
vt 0.945222 0.000000
vt 0.945617 0.013343
vt 0.943991 0.007076
vt 0.113423 0.071587
vt 0.115737 0.069061
vt 0.188695 0.069061
vt 0.191009 0.071587
vt 0.315858 0.976192
vt 0.313391 0.978506
vt 0.313391 0.912819
vt 0.315858 0.915133
vt 0.623434 0.301930
vt 0.625248 0.301027
vt 0.610678 0.301931
vt 0.608864 0.301027
vt 0.863193 0.896421
vt 0.860899 0.898715
vt 0.859682 0.896709
vt 0.856698 0.746151
vt 0.860254 0.743547
vt 0.773915 0.743547
vt 0.773271 0.898716
vt 0.770977 0.896421
vt 0.304442 0.313291
vt 0.151113 0.313291
vt 0.153518 0.310977
vt 0.304176 0.310977
vt 0.798621 0.583684
vt 0.151113 0.617187
vt 0.304442 0.617187
vt 0.304176 0.619501
vt 0.153518 0.619501
vt 0.608885 0.685297
vt 0.835548 0.583684
vt 0.003253 0.413819
vt 0.003253 0.516660
vt -0.000000 0.514346
vt 0.000000 0.416133
vt 0.608885 0.788139
vt 0.770977 0.583168
vt 0.636658 0.584502
vt 0.689931 0.685297
vt 0.863193 0.583168
vt 0.103109 -0.000000
vt 0.201323 -0.000000
vt 0.689931 0.788139
vt 0.636658 0.888934
vt 0.633263 0.582456
vt 0.633263 0.890980
vt 0.188695 0.044467
vt 0.115737 0.044467
vt 0.945617 0.110403
vt 0.924455 0.421380
vt 0.925447 0.036343
vt 0.944625 0.347321
vt 0.924859 0.040502
vt 0.945213 0.351480
vt 0.617056 0.274674
vt 0.617056 0.296203
vt 0.617056 0.296203
vt 0.617056 0.274674
vt 0.321779 0.760288
vt 0.321779 0.821346
vt 0.319886 0.821346
vt 0.319886 0.760288
vt 0.608864 0.278275
vt 0.625248 0.278275
vt 0.619481 0.271479
vt 0.623434 0.274552
vt 0.071003 0.911348
vt 0.074796 0.911348
vt 0.074796 0.977035
vt 0.071003 0.977035
vt 0.610678 0.274552
vt 0.614632 0.271479
vt 0.090503 0.303277
vt 0.213929 0.303277
vt 0.960551 0.730119
vt 0.960551 0.823157
vt 0.958237 0.823157
vt 0.958237 0.730119
vt 0.992130 0.723604
vt 0.992130 0.816642
vt 0.989816 0.816642
vt 0.989816 0.723604
vt 0.837662 0.896982
vt 0.019354 0.508048
vt 0.156041 0.600979
vt 0.019354 0.422431
vt 0.156041 0.329500
vt 0.288341 0.516660
vt 0.288341 0.413819
vt 0.304442 0.413819
vt 0.304442 0.516660
vt 0.288341 0.329500
vt 0.288341 0.600979
vt 0.608864 0.092931
vt 0.877852 0.084319
vt 0.877852 0.187160
vt 0.608864 0.178548
vt 0.877852 0.271479
vt 0.745551 0.271479
vt 0.745551 0.000000
vt 0.877852 0.000000
vt 0.983852 0.123818
vt 0.977961 0.123818
vt 0.989743 0.221126
vt 0.989743 0.135509
vt 0.995650 0.135509
vt 0.995650 0.221126
vt 0.940514 0.840349
vt 0.946408 0.840525
vt 0.983852 0.039499
vt 0.977961 0.039499
vt 0.958237 0.582456
vt 0.952343 0.582632
vt 0.338667 0.760288
vt 0.338667 0.821346
vt 0.991722 0.446413
vt 0.990963 0.579079
vt 0.983852 0.578985
vt 0.984611 0.446320
vt 0.173613 0.626340
vt 0.173613 0.745406
vt 0.179054 0.750368
vt 0.171723 0.751985
vt 0.171723 0.619501
vt 0.982498 0.715215
vt 0.981739 0.582550
vt 0.988850 0.582456
vt 0.989609 0.715122
vt 0.968865 0.586591
vt 0.968865 0.719259
vt 0.984053 0.813596
vt 0.984053 0.720558
vt 0.966314 0.727073
vt 0.966314 0.820111
vt 0.764224 0.983960
vt 0.764224 0.890980
vt 0.769975 0.894010
vt 0.769975 0.986990
vt 0.964448 0.181287
vt 0.964448 0.048620
vt 0.608425 0.829721
vt 0.608425 0.922701
vt 0.602675 0.925732
vt 0.602675 0.832752
vt 0.249347 0.755197
vt 0.252626 0.750833
vt 0.254516 0.757671
vt 0.944030 0.964759
vt 0.944030 0.845527
vt 0.952631 0.845591
vt 0.952631 0.964823
vt 0.281877 0.992771
vt 0.281877 0.913264
vt 0.288960 0.917008
vt 0.288960 0.996514
vt 0.977357 0.190066
vt 0.977357 0.269523
vt 0.970290 0.265799
vt 0.970290 0.186342
vt 0.884635 0.981896
vt 0.884635 0.902440
vt 0.891702 0.898716
vt 0.891702 0.978172
vt 0.969533 0.188926
vt 0.970290 0.308156
vt 0.961689 0.308274
vt 0.960932 0.189045
vt 0.972381 0.704270
vt 0.973138 0.585040
vt 0.981739 0.585158
vt 0.980981 0.704388
vt 0.485105 0.741184
vt 0.485105 0.622117
vt 0.555934 0.626982
vt 0.555934 0.746049
vt 0.080903 0.745406
vt 0.080903 0.626340
vt 0.075462 0.622125
vt 0.082793 0.619501
vt 0.082793 0.751985
vt 0.966192 0.315979
vt 0.966192 0.435211
vt 0.957591 0.435275
vt 0.957591 0.316043
vt 0.412230 0.622117
vt 0.412230 0.741184
vt 0.341400 0.746049
vt 0.341400 0.626982
vt 0.249347 0.626953
vt 0.179054 0.622125
vt 0.254516 0.625188
vt 0.001890 0.631767
vt 0.001890 0.750833
vt 0.005169 0.755197
vt 0.000000 0.757672
vt 0.000000 0.625188
vt 0.075462 0.750368
vt 0.005169 0.626953
vt 0.265538 0.913264
vt 0.265538 0.992771
vt 0.258455 0.996515
vt 0.258455 0.917008
vt 0.252626 0.631767
vt 0.945697 0.966793
vt 0.943723 0.968947
vt 0.940514 0.964977
vt 0.940514 0.845745
vt 0.943723 0.840525
vt 0.945697 0.842966
vt 0.964525 0.313418
vt 0.966499 0.310977
vt 0.969708 0.316197
vt 0.969708 0.435429
vt 0.966499 0.439399
vt 0.964525 0.437245
vt 0.248266 0.753168
vt 0.250580 0.750993
vt 0.006250 0.753168
vt 0.003936 0.750993
vt 0.250580 0.631927
vt 0.248266 0.629513
vt 0.003936 0.631927
vt 0.006250 0.629513
vt 0.613301 0.308301
vt 0.610955 0.307204
vt 0.613301 0.305914
vt 0.983785 0.717799
vt 0.981739 0.719031
vt 0.968628 0.725546
vt 0.966582 0.724314
vt 0.610955 0.302221
vt 0.613301 0.303511
vt 0.610955 0.304607
vt 0.960932 0.181505
vt 0.963386 0.183853
vt 0.969926 0.721824
vt 0.972381 0.719477
vt 0.960932 0.048837
vt 0.963386 0.046590
vt 0.969927 0.584562
vt 0.972381 0.586809
vt 0.956147 0.964605
vt 0.953693 0.966852
vt 0.953693 0.843025
vt 0.956147 0.845373
vt 0.954075 0.315825
vt 0.956529 0.313478
vt 0.956529 0.437305
vt 0.954075 0.435057
vt 0.291274 0.998041
vt 0.289228 0.999273
vt 0.258187 0.999274
vt 0.256141 0.998041
vt 0.608864 0.301931
vt 0.610955 0.303081
vt 0.608864 0.304607
vt 0.610955 0.308300
vt 0.610955 0.310977
vt 0.608864 0.309451
vt 0.169677 0.752145
vt 0.169677 0.619661
vt 0.084839 0.619661
vt 0.084839 0.752145
vt 0.254248 0.760287
vt 0.171991 0.754638
vt 0.082525 0.754638
vt 0.000268 0.760288
vt 0.968628 0.819192
vt 0.981739 0.812676
vt 0.991722 0.581662
vt 0.985216 0.581577
vt 0.960283 0.727643
vt 0.966582 0.822587
vt 0.960283 0.825916
vt 0.990084 0.819401
vt 0.983784 0.816072
vt 0.988244 0.717713
vt 0.981739 0.717799
vt 0.990084 0.721128
vt 0.279563 0.992771
vt 0.279563 0.913264
vt 0.267852 0.913264
vt 0.267852 0.992771
vt 0.076543 0.624685
vt 0.177973 0.624685
vt 0.291274 0.917927
vt 0.256141 0.917928
vt 0.557980 0.626822
vt 0.557980 0.745889
vt 0.339355 0.745889
vt 0.339355 0.626822
vt 0.341668 0.624329
vt 0.411961 0.619501
vt 0.485373 0.619501
vt 0.555666 0.624329
vt 0.281609 0.910505
vt 0.289228 0.914532
vt 0.281609 0.995246
vt 0.962295 0.186452
vt 0.970290 0.186342
vt 0.972381 0.582456
vt 0.980376 0.582566
vt 0.265806 0.995247
vt 0.258187 0.914532
vt 0.265806 0.910505
vt 0.014912 0.760344
vt 0.031818 0.761149
vt 0.031818 0.766054
vt 0.014912 0.765249
vt 0.143946 0.760288
vt 0.160384 0.761244
vt 0.160384 0.766147
vt 0.143946 0.765190
vt 0.490259 0.835324
vt 0.507297 0.836242
vt 0.507297 0.869390
vt 0.476129 0.867713
vt 0.224410 0.761244
vt 0.240847 0.760288
vt 0.240847 0.765190
vt 0.224410 0.766147
vt 0.032508 0.761149
vt 0.049414 0.760344
vt 0.049414 0.765249
vt 0.032508 0.766054
vt 0.507994 0.830631
vt 0.524901 0.829721
vt 0.524901 0.834617
vt 0.507994 0.835527
vt 0.161072 0.761249
vt 0.178382 0.760543
vt 0.178382 0.765446
vt 0.161072 0.766152
vt 0.206411 0.760543
vt 0.223721 0.761249
vt 0.223721 0.766152
vt 0.206411 0.765446
vt 0.475974 0.868419
vt 0.507304 0.870105
vt 0.507304 0.919489
vt 0.475974 0.917802
vt 0.224430 0.766860
vt 0.240995 0.765896
vt 0.255978 0.798063
vt 0.225674 0.799827
vt 0.032516 0.766767
vt 0.049554 0.765955
vt 0.063684 0.798189
vt 0.032516 0.799675
vt 0.508002 0.836242
vt 0.525040 0.835324
vt 0.539170 0.867713
vt 0.508002 0.869390
vt 0.161067 0.766865
vt 0.178511 0.766153
vt 0.191734 0.798530
vt 0.159823 0.799832
vt 0.206282 0.766153
vt 0.223726 0.766865
vt 0.224971 0.799832
vt 0.193059 0.798530
vt 0.014772 0.765955
vt 0.031810 0.766767
vt 0.031810 0.799675
vt 0.000642 0.798189
vt 0.143798 0.765896
vt 0.160363 0.766860
vt 0.159119 0.799827
vt 0.128815 0.798063
vt 0.128652 0.798767
vt 0.159113 0.800541
vt 0.159113 0.849993
vt 0.128652 0.848220
vt 0.558036 0.731059
vt 0.559100 0.708722
vt 0.567435 0.708722
vt 0.566370 0.731059
vt 0.225680 0.800541
vt 0.256141 0.798767
vt 0.256141 0.848220
vt 0.225680 0.849993
vt 0.032508 0.800388
vt 0.063838 0.798894
vt 0.063838 0.848370
vt 0.032508 0.849863
vt 0.507994 0.870105
vt 0.539325 0.868419
vt 0.539325 0.917802
vt 0.507994 0.919489
vt 0.159802 0.800546
vt 0.191880 0.799237
vt 0.191880 0.848689
vt 0.159802 0.849998
vt 0.192914 0.799237
vt 0.224991 0.800546
vt 0.224991 0.849998
vt 0.192914 0.848689
vt 0.000488 0.798894
vt 0.031818 0.800388
vt 0.031818 0.849863
vt 0.000488 0.848370
vt 0.047811 0.933685
vt 0.046609 0.911348
vt 0.054928 0.911348
vt 0.056131 0.933685
vt 0.559100 0.708033
vt 0.558036 0.685696
vt 0.566370 0.685696
vt 0.567435 0.708033
vt 0.484524 0.799974
vt 0.484524 0.775797
vt 0.484151 0.774896
vt 0.495529 0.770711
vt 0.495529 0.805060
vt 0.934198 0.532351
vt 0.933124 0.555214
vt 0.924794 0.555162
vt 0.925867 0.532299
vt 0.046609 0.956711
vt 0.047811 0.934375
vt 0.056131 0.934375
vt 0.054928 0.956711
vt 0.935387 0.555214
vt 0.934313 0.532351
vt 0.942644 0.532299
vt 0.943717 0.555162
vt 0.934255 0.577626
vt 0.935386 0.555902
vt 0.943716 0.555851
vt 0.942586 0.577575
vt 0.273919 0.910132
vt 0.256515 0.892727
vt 0.256515 0.868113
vt 0.273920 0.850708
vt 0.298534 0.850708
vt 0.315938 0.868113
vt 0.315938 0.892727
vt 0.298534 0.910132
vt 0.933125 0.555902
vt 0.934256 0.577626
vt 0.925925 0.577575
vt 0.924794 0.555851
vt 0.441977 0.818344
vt 0.466154 0.818344
vt 0.467055 0.817970
vt 0.471240 0.829348
vt 0.436891 0.829348
vt 0.423981 0.800875
vt 0.441076 0.817970
vt 0.412603 0.805060
vt 0.441076 0.757800
vt 0.423981 0.774896
vt 0.423607 0.775797
vt 0.412603 0.770711
vt 0.436891 0.746422
vt 0.467055 0.757800
vt 0.466154 0.757427
vt 0.471240 0.746422
vt 0.484151 0.800875
vt 0.423607 0.799974
vt 0.441977 0.757427
vt 0.507304 0.835527
vt 0.179040 0.766098
vt 0.178899 0.765392
vt 0.050052 0.765897
vt 0.049902 0.765193
vt 0.014274 0.765897
vt 0.014424 0.765193
vt 0.205753 0.766098
vt 0.205894 0.765392
vt 0.192397 0.799182
vt 0.192263 0.798475
vt 0.064326 0.798838
vt 0.064182 0.798132
vt 0.000000 0.798838
vt 0.000144 0.798132
vt 0.192530 0.798475
vt 0.441977 0.817970
vt 0.441340 0.817706
vt 0.466154 0.817970
vt 0.466791 0.817706
vt 0.483887 0.800611
vt 0.484151 0.799974
vt 0.484151 0.775797
vt 0.483887 0.775159
vt 0.466791 0.758064
vt 0.466154 0.757800
vt 0.441977 0.757800
vt 0.441340 0.758064
vt 0.424244 0.775160
vt 0.423981 0.775797
vt 0.423981 0.799974
vt 0.424244 0.800611
vt 0.471659 0.829458
vt 0.471022 0.829721
vt 0.507649 0.919825
vt 0.159474 0.850335
vt 0.495638 0.770292
vt 0.495902 0.770929
vt 0.032163 0.850203
vt 0.436473 0.746313
vt 0.437110 0.746049
vt 0.225319 0.850335
vt 0.412494 0.805478
vt 0.412229 0.804841
vt 0.567776 0.708378
vt 0.273501 0.910241
vt 0.274138 0.910505
vt 0.924455 0.555488
vt 0.316048 0.893146
vt 0.316312 0.892509
vt 0.056467 0.934030
vt 0.298952 0.850599
vt 0.298315 0.850335
vt 0.944056 0.555488
vt 0.256405 0.867694
vt 0.256141 0.868331
vt 0.490398 0.834617
vt 0.049902 0.760288
vt 0.178899 0.760489
vt 0.205894 0.760489
vt 0.014424 0.760288
vt 0.507304 0.830631
vt 0.437110 0.829721
vt 0.495638 0.805478
vt 0.495902 0.804841
vt 0.471659 0.746313
vt 0.471022 0.746049
vt 0.412493 0.770292
vt 0.412229 0.770929
vt 0.436473 0.829457
vt 0.192397 0.848635
vt 0.000000 0.848313
vt 0.064326 0.848313
vt 0.256405 0.893146
vt 0.298315 0.910505
vt 0.298952 0.910241
vt 0.316312 0.868332
vt 0.316048 0.867694
vt 0.274138 0.850335
vt 0.273501 0.850599
vt 0.256141 0.892508
vt 0.925925 0.531783
vt 0.934256 0.531834
vt 0.566314 0.731547
vt 0.557980 0.731547
vt 0.557979 0.685208
vt 0.566314 0.685208
vt 0.934255 0.531834
vt 0.942586 0.531783
vt 0.490398 0.829721
vt 0.568876 0.619542
vt 0.581231 0.620131
vt 0.581231 0.623715
vt 0.568876 0.623127
vt 0.889028 0.197122
vt 0.901040 0.197821
vt 0.901040 0.201403
vt 0.889028 0.200704
vt 0.904370 0.783960
vt 0.916821 0.784630
vt 0.916821 0.808854
vt 0.894045 0.807628
vt 0.901266 0.509086
vt 0.913278 0.508387
vt 0.913278 0.511970
vt 0.901266 0.512669
vt 0.581735 0.620131
vt 0.594090 0.619542
vt 0.594090 0.623127
vt 0.581735 0.623715
vt 0.917331 0.780531
vt 0.929686 0.779866
vt 0.929686 0.783443
vt 0.917331 0.784109
vt 0.901543 0.197824
vt 0.914193 0.197308
vt 0.914193 0.200891
vt 0.901543 0.201407
vt 0.888114 0.508574
vt 0.900763 0.509090
vt 0.900763 0.512673
vt 0.888114 0.512157
vt 0.893932 0.808144
vt 0.916827 0.809377
vt 0.916827 0.845464
vt 0.893932 0.844232
vt 0.901281 0.513190
vt 0.913386 0.512485
vt 0.924335 0.535992
vt 0.902190 0.537281
vt 0.581741 0.624236
vt 0.594191 0.623643
vt 0.604517 0.647198
vt 0.581741 0.648284
vt 0.917336 0.784630
vt 0.929787 0.783960
vt 0.940113 0.807628
vt 0.917336 0.808854
vt 0.901540 0.201928
vt 0.914287 0.201408
vt 0.923950 0.225068
vt 0.900630 0.226019
vt 0.888019 0.512673
vt 0.900767 0.513194
vt 0.901676 0.537285
vt 0.878356 0.536333
vt 0.568775 0.623643
vt 0.581225 0.624236
vt 0.581225 0.648284
vt 0.558449 0.647198
vt 0.888920 0.201220
vt 0.901025 0.201924
vt 0.900116 0.226015
vt 0.877971 0.224726
vt 0.877852 0.225241
vt 0.900112 0.226537
vt 0.900112 0.262675
vt 0.877852 0.261379
vt 0.655990 0.304985
vt 0.656768 0.288662
vt 0.662859 0.288662
vt 0.662081 0.304985
vt 0.902194 0.537802
vt 0.924455 0.536507
vt 0.924455 0.572644
vt 0.902194 0.573940
vt 0.581735 0.648805
vt 0.604630 0.647714
vt 0.604630 0.683868
vt 0.581735 0.684959
vt 0.917331 0.809377
vt 0.940226 0.808144
vt 0.940226 0.844232
vt 0.917331 0.845464
vt 0.900615 0.226541
vt 0.924056 0.225584
vt 0.924056 0.261722
vt 0.900615 0.262678
vt 0.878250 0.536850
vt 0.901691 0.537806
vt 0.901691 0.573944
vt 0.878250 0.572987
vt 0.558336 0.647714
vt 0.581231 0.648805
vt 0.581231 0.684959
vt 0.558336 0.683868
vt 0.714117 0.287801
vt 0.713239 0.271479
vt 0.719318 0.271479
vt 0.720197 0.287801
vt 0.656768 0.288158
vt 0.655990 0.271835
vt 0.662081 0.271835
vt 0.662859 0.288158
vt 0.052830 0.889610
vt 0.052830 0.871942
vt 0.052558 0.871283
vt 0.060872 0.868225
vt 0.060872 0.893326
vt 0.677386 0.271894
vt 0.676601 0.288601
vt 0.670514 0.288564
vt 0.671299 0.271856
vt 0.713239 0.304628
vt 0.714117 0.288305
vt 0.720197 0.288305
vt 0.719318 0.304628
vt 0.678255 0.288601
vt 0.677470 0.271894
vt 0.683558 0.271856
vt 0.684343 0.288564
vt 0.677428 0.304980
vt 0.678254 0.289104
vt 0.684342 0.289067
vt 0.683516 0.304942
vt 0.890843 0.306622
vt 0.878125 0.293903
vt 0.878125 0.275916
vt 0.890843 0.263197
vt 0.908830 0.263197
vt 0.921549 0.275916
vt 0.921549 0.293903
vt 0.908830 0.306622
vt 0.676602 0.289104
vt 0.677428 0.304980
vt 0.671341 0.304942
vt 0.670514 0.289067
vt 0.929686 0.845710
vt 0.929686 0.849288
vt 0.917331 0.849953
vt 0.917331 0.846375
vt 0.021739 0.903034
vt 0.039406 0.903034
vt 0.040065 0.902761
vt 0.043123 0.911075
vt 0.018022 0.911075
vt 0.008587 0.890268
vt 0.021080 0.902761
vt 0.000273 0.893326
vt 0.021080 0.858791
vt 0.008587 0.871283
vt 0.008314 0.871942
vt 0.000273 0.868225
vt 0.018022 0.850476
vt 0.040065 0.858790
vt 0.039406 0.858518
vt 0.043123 0.850476
vt 0.052558 0.890268
vt 0.008314 0.889610
vt 0.021739 0.858518
vt 0.913962 0.000041
vt 0.913962 0.003625
vt 0.901607 0.004214
vt 0.901607 0.000630
vt 0.913278 0.310977
vt 0.913278 0.314560
vt 0.901266 0.315259
vt 0.901266 0.311677
vt 0.929787 0.849804
vt 0.940113 0.873473
vt 0.917336 0.874699
vt 0.917336 0.850475
vt 0.917120 0.583155
vt 0.917120 0.586738
vt 0.905108 0.586039
vt 0.905108 0.582456
vt 0.901103 0.000630
vt 0.901103 0.004214
vt 0.888749 0.003625
vt 0.888749 0.000041
vt 0.916827 0.846375
vt 0.916827 0.849953
vt 0.904472 0.849288
vt 0.904472 0.845710
vt 0.900763 0.311680
vt 0.900763 0.315263
vt 0.888114 0.314747
vt 0.888114 0.311164
vt 0.930273 0.582643
vt 0.930273 0.586226
vt 0.917623 0.586742
vt 0.917623 0.583159
vt 0.940226 0.873989
vt 0.940226 0.910076
vt 0.917331 0.911309
vt 0.917331 0.875221
vt 0.917105 0.587259
vt 0.916196 0.611350
vt 0.894051 0.610061
vt 0.905000 0.586554
vt 0.901098 0.004735
vt 0.901098 0.028783
vt 0.878321 0.027697
vt 0.888647 0.004141
vt 0.916821 0.850475
vt 0.916821 0.874699
vt 0.894045 0.873473
vt 0.904370 0.849804
vt 0.900767 0.315784
vt 0.901676 0.339875
vt 0.878356 0.338924
vt 0.888019 0.315264
vt 0.930367 0.586743
vt 0.940030 0.610402
vt 0.916710 0.611354
vt 0.917619 0.587263
vt 0.914064 0.004141
vt 0.924389 0.027697
vt 0.901613 0.028783
vt 0.901613 0.004735
vt 0.913386 0.315076
vt 0.924335 0.338582
vt 0.902190 0.339871
vt 0.901281 0.315780
vt 0.924455 0.339097
vt 0.924455 0.375235
vt 0.902194 0.376531
vt 0.902194 0.340393
vt 0.641673 0.271835
vt 0.647764 0.271835
vt 0.648542 0.288158
vt 0.642451 0.288158
vt 0.916192 0.611872
vt 0.916192 0.648009
vt 0.893932 0.646714
vt 0.893932 0.610576
vt 0.901103 0.029304
vt 0.901103 0.065458
vt 0.878208 0.064367
vt 0.878208 0.028213
vt 0.916827 0.875221
vt 0.916827 0.911309
vt 0.893932 0.910076
vt 0.893932 0.873989
vt 0.901691 0.340397
vt 0.901691 0.376534
vt 0.878250 0.375578
vt 0.878250 0.339440
vt 0.940136 0.610919
vt 0.940136 0.647057
vt 0.916695 0.648013
vt 0.916695 0.611875
vt 0.924502 0.028213
vt 0.924502 0.064367
vt 0.901607 0.065458
vt 0.901607 0.029304
vt 0.592774 0.702035
vt 0.598854 0.702035
vt 0.597975 0.718358
vt 0.591896 0.718358
vt 0.642451 0.288662
vt 0.648542 0.288662
vt 0.647764 0.304985
vt 0.641673 0.304985
vt 0.150391 0.858649
vt 0.149732 0.858922
vt 0.146674 0.850607
vt 0.171775 0.850607
vt 0.168058 0.858649
vt 0.684632 0.271894
vt 0.690720 0.271856
vt 0.691505 0.288564
vt 0.685417 0.288601
vt 0.591896 0.685208
vt 0.597975 0.685208
vt 0.598854 0.701531
vt 0.592774 0.701531
vt 0.583907 0.702331
vt 0.577819 0.702293
vt 0.578604 0.685586
vt 0.584692 0.685623
vt 0.584734 0.718709
vt 0.578646 0.718672
vt 0.577820 0.702797
vt 0.583908 0.702834
vt 0.714465 0.934677
vt 0.701746 0.921959
vt 0.701746 0.903971
vt 0.714465 0.891253
vt 0.732452 0.891253
vt 0.745171 0.903971
vt 0.745171 0.921959
vt 0.732452 0.934677
vt 0.136966 0.889741
vt 0.137239 0.890399
vt 0.128925 0.893458
vt 0.128925 0.868357
vt 0.136966 0.872073
vt 0.149732 0.902892
vt 0.150390 0.903165
vt 0.146674 0.911207
vt 0.685416 0.289104
vt 0.691504 0.289067
vt 0.690678 0.304942
vt 0.684590 0.304980
vt 0.181209 0.890399
vt 0.181482 0.889741
vt 0.189524 0.893458
vt 0.171775 0.911207
vt 0.168717 0.902892
vt 0.168717 0.858922
vt 0.189524 0.868357
vt 0.181210 0.871415
vt 0.137239 0.871415
vt 0.168058 0.903165
vt 0.181482 0.872073
vt 0.916827 0.784109
vt 0.914674 0.201367
vt 0.914571 0.200851
vt 0.594556 0.623601
vt 0.594446 0.623086
vt 0.568410 0.623601
vt 0.568520 0.623086
vt 0.887633 0.512633
vt 0.887736 0.512117
vt 0.924434 0.225545
vt 0.924336 0.225027
vt 0.604986 0.647673
vt 0.604881 0.647156
vt 0.557980 0.647673
vt 0.558084 0.647156
vt 0.877872 0.536810
vt 0.877970 0.536293
vt 0.021739 0.902761
vt 0.021273 0.902568
vt 0.039406 0.902761
vt 0.039872 0.902568
vt 0.052365 0.890075
vt 0.052558 0.889609
vt 0.052558 0.871942
vt 0.052365 0.871476
vt 0.039872 0.858983
vt 0.039406 0.858791
vt 0.021739 0.858791
vt 0.021273 0.858983
vt 0.008780 0.871476
vt 0.008587 0.871942
vt 0.008587 0.889609
vt 0.008780 0.890075
vt 0.043429 0.911155
vt 0.042963 0.911348
vt 0.917079 0.845710
vt 0.900375 0.262925
vt 0.060952 0.867919
vt 0.061145 0.868385
vt 0.581483 0.685208
vt 0.017716 0.850396
vt 0.018182 0.850203
vt 0.901931 0.574190
vt 0.000193 0.893632
vt -0.000000 0.893167
vt 0.663108 0.288410
vt 0.890537 0.306702
vt 0.891003 0.306895
vt 0.670266 0.288802
vt 0.921629 0.294209
vt 0.921822 0.293744
vt 0.720442 0.288053
vt 0.909137 0.263118
vt 0.908671 0.262925
vt 0.684590 0.288802
vt 0.878045 0.275610
vt 0.877852 0.276076
vt 0.887633 0.315223
vt 0.887736 0.314707
vt 0.888283 0.004099
vt 0.888392 0.003584
vt 0.914318 0.003584
vt 0.914428 0.004099
vt 0.930650 0.586186
vt 0.930753 0.586702
vt 0.877872 0.339401
vt 0.877970 0.338883
vt 0.877852 0.028172
vt 0.877957 0.027655
vt 0.924754 0.027655
vt 0.924859 0.028172
vt 0.940416 0.610362
vt 0.940514 0.610879
vt 0.137239 0.889741
vt 0.137432 0.890207
vt 0.137239 0.872073
vt 0.137432 0.871608
vt 0.149925 0.859115
vt 0.150391 0.858922
vt 0.168058 0.858922
vt 0.168524 0.859115
vt 0.181017 0.871608
vt 0.181210 0.872073
vt 0.181209 0.889741
vt 0.181017 0.890207
vt 0.168524 0.902699
vt 0.168058 0.902892
vt 0.150391 0.902892
vt 0.149925 0.902699
vt 0.128652 0.868516
vt 0.128845 0.868051
vt 0.917079 0.911554
vt 0.901931 0.376781
vt 0.171615 0.850335
vt 0.172081 0.850528
vt 0.901355 0.065707
vt 0.189797 0.893298
vt 0.189604 0.893764
vt 0.916455 0.648259
vt 0.146833 0.911479
vt 0.146368 0.911287
vt 0.648791 0.288410
vt 0.714625 0.934950
vt 0.714159 0.934757
vt 0.691752 0.288802
vt 0.701473 0.904131
vt 0.701666 0.903665
vt 0.599099 0.701783
vt 0.732292 0.890980
vt 0.732758 0.891173
vt 0.577572 0.702532
vt 0.745444 0.921799
vt 0.745251 0.922265
vt 0.904472 0.783443
vt 0.594446 0.619501
vt 0.914571 0.197269
vt 0.887736 0.508534
vt 0.568520 0.619501
vt 0.916827 0.780531
vt 0.018182 0.911348
vt 0.060952 0.893632
vt 0.061145 0.893166
vt 0.043429 0.850396
vt 0.042963 0.850203
vt 0.000193 0.867919
vt -0.000000 0.868385
vt 0.017716 0.911155
vt 0.924434 0.261682
vt 0.877872 0.572948
vt 0.557980 0.683827
vt 0.604986 0.683827
vt 0.878045 0.294209
vt 0.908671 0.306895
vt 0.909136 0.306702
vt 0.921822 0.276076
vt 0.921629 0.275610
vt 0.891003 0.262925
vt 0.890538 0.263118
vt 0.877852 0.293744
vt 0.671341 0.271479
vt 0.677428 0.271516
vt 0.662040 0.305341
vt 0.655949 0.305341
vt 0.655949 0.271479
vt 0.662040 0.271479
vt 0.683516 0.271479
vt 0.888392 0.000000
vt 0.887736 0.311125
vt 0.930650 0.582603
vt 0.914318 0.000000
vt 0.128652 0.893298
vt 0.146368 0.850528
vt 0.146834 0.850335
vt 0.189604 0.868051
vt 0.189797 0.868517
vt 0.172081 0.911287
vt 0.171615 0.911479
vt 0.128845 0.893763
vt 0.877872 0.375538
vt 0.940514 0.647017
vt 0.924859 0.064326
vt 0.877852 0.064326
vt 0.732292 0.934950
vt 0.701666 0.922264
vt 0.701473 0.921799
vt 0.714159 0.891173
vt 0.714625 0.890980
vt 0.745251 0.903666
vt 0.745444 0.904131
vt 0.732758 0.934757
vt 0.684590 0.271516
vt 0.690678 0.271479
vt 0.641632 0.271479
vt 0.647723 0.271479
vt 0.647723 0.305341
vt 0.641632 0.305341
vt 0.578646 0.685208
vt 0.584734 0.685246
vt 0.904472 0.779866
s 1
usemtl BAKE
f 1/1/1 2/2/1 3/3/1 4/4/1
f 5/5/2 6/6/2 7/7/2 8/8/2
f 9/9/3 10/10/3 11/11/3 12/12/3
f 13/13/4 14/14/4 15/15/4 16/16/4 17/17/4
f 20/18/5 24/19/6 220/20/6 215/21/5
f 22/22/3 9/9/3 12/12/3 23/23/3
f 36/24/7 37/25/8 219/26/8 218/27/7
f 26/28/5 27/29/5 28/30/5 29/31/5
f 30/32/9 31/33/9 32/34/9 33/35/9
f 10/10/3 34/36/3 35/37/3 11/11/3
f 25/38/10 21/39/11 216/40/11 217/41/10
f 38/42/12 39/43/12 40/44/12 41/45/12
f 42/46/13 43/47/13 44/48/13 45/49/13 46/50/13
f 17/17/14 46/50/14 45/49/14
f 47/51/15 48/52/15 49/53/15 50/54/15
f 51/55/16 16/16/16 52/56/16
f 53/57/17 54/58/17 55/59/17
f 50/54/4 49/53/4 45/49/4 52/56/4
f 49/53/4 56/60/4 13/13/4 17/17/4 45/49/4
f 15/15/4 50/54/4 52/56/4 16/16/4
f 57/61/17 58/62/17 59/63/17 60/64/17
f 61/65/1 62/66/1 63/67/1 64/68/1
f 65/69/18 66/70/18 67/71/18 68/72/18 69/73/18
f 52/56/19 45/49/19 70/74/19 71/75/19
f 72/76/18 73/77/18 74/78/18 75/79/18 76/80/18
f 74/78/18 77/81/18 65/69/18 69/73/18 75/79/18
f 67/71/18 78/82/18 72/76/18 76/80/18 68/72/18
f 79/83/19 80/84/19 81/85/19 82/86/19
f 83/87/1 84/88/1 85/89/1
f 86/90/13 87/91/13 42/46/13 46/50/13 88/92/13
f 89/93/20 90/94/20 91/95/20 52/56/20 71/75/20
f 92/96/20 93/97/20 89/93/20 71/75/20 94/98/20
f 95/99/20 96/100/20 92/96/20 94/98/20 51/55/20
f 91/95/20 97/101/20 95/99/20 51/55/20 52/56/20
f 44/48/13 98/102/13 99/103/13 70/74/13 45/49/13
f 99/103/13 100/104/13 86/90/13 88/92/13 70/74/13
f 101/105/21 208/106/21 5/5/21
f 31/33/22 206/107/22 1/1/22
f 102/108/23 34/36/23 211/109/23
f 2/110/24 212/111/24 22/22/24
f 6/112/25 207/113/25 26/28/25
f 30/114/26 27/29/26 205/115/26
f 103/116/27 95/99/27 97/101/27 104/117/27
f 105/118/28 106/119/28 42/46/28 87/91/28
f 107/120/29 108/121/29 92/96/29 96/100/29
f 109/122/30 86/90/30 100/104/30 110/123/30
f 79/83/31 62/124/31 67/125/31 66/126/31
f 80/84/32 65/127/32 77/128/32 57/129/32
f 111/130/33 99/131/33 98/132/33 112/133/33
f 113/134/34 114/135/34 89/136/34 93/137/34
f 7/138/35 29/31/35 16/139/35
f 17/140/36 28/30/36 33/141/36
f 115/142/37 44/143/37 43/144/37 116/145/37
f 117/146/38 118/147/38 91/148/38 90/149/38
f 39/150/39 72/76/39 78/82/39 61/151/39
f 38/152/40 58/153/40 74/78/40 73/77/40
f 68/154/41 54/58/41 15/155/41 14/156/41
f 13/157/42 56/158/42 83/87/42 69/159/42
f 47/51/43 55/160/43 76/161/43
f 75/162/44 85/163/44 48/52/44
f 82/86/45 119/164/45 63/165/45
f 81/85/46 60/166/46 120/167/46
f 40/168/47 64/68/47 121/169/47
f 41/170/48 122/171/48 59/63/48
f 94/172/49 35/173/49 123/174/49
f 124/175/50 8/8/50 51/176/50
f 32/34/51 4/4/51 46/177/51
f 3/3/52 23/178/52 88/179/52
f 211/180/53 208/181/53 101/182/53 102/183/53
f 205/184/54 206/107/54 31/33/54 30/32/54
f 206/185/55 212/186/55 2/187/55 1/188/55
f 19/189/56 211/109/56 34/36/56 10/10/56
f 208/106/57 207/190/57 6/6/57 5/5/57
f 207/191/58 205/192/58 27/193/58 26/194/58
f 212/111/56 210/195/56 9/9/56 22/22/56
f 210/195/56 19/189/56 10/10/56 9/9/56
f 123/174/59 124/175/59 51/176/59 94/172/59
f 33/35/60 32/34/60 46/177/60 17/196/60
f 4/4/61 3/3/61 88/179/61 46/177/61
f 11/11/62 35/37/62 94/197/62 71/198/62
f 8/8/63 7/7/63 16/199/63 51/176/63
f 29/200/64 28/201/64 17/17/64 16/16/64
f 23/23/65 12/12/65 70/202/65 88/203/65
f 12/12/66 11/11/66 71/198/66 70/202/66
f 30/114/67 33/141/67 28/30/67 27/29/67
f 7/138/68 6/112/68 26/28/68 29/31/68
f 102/108/69 123/204/69 35/37/69 34/36/69
f 1/1/70 4/4/70 32/34/70 31/33/70
f 3/205/71 2/110/71 22/22/71 23/23/71
f 124/175/72 101/105/72 5/5/72 8/8/72
f 14/14/73 13/13/73 69/206/73 68/207/73
f 56/158/74 49/208/74 84/88/74 83/87/74
f 54/58/75 53/57/75 50/209/75 15/155/75
f 76/161/76 75/162/76 48/52/76 47/51/76
f 75/210/77 69/159/77 83/87/77 85/89/77
f 68/154/78 76/211/78 55/59/78 54/58/78
f 85/89/79 84/88/79 49/208/79 48/212/79
f 47/213/80 50/209/80 53/57/80 55/59/80
f 66/126/81 65/127/81 80/84/81 79/83/81
f 39/150/82 38/152/82 73/77/82 72/76/82
f 58/62/78 57/61/78 77/214/78 74/215/78
f 62/66/77 61/65/77 78/216/77 67/217/77
f 82/86/81 81/85/81 120/167/81 119/164/81
f 121/218/83 122/219/83 41/220/83 40/221/83
f 122/171/78 120/222/78 60/64/78 59/63/78
f 119/223/77 121/169/77 64/68/77 63/67/77
f 79/224/84 82/225/84 63/67/84 62/66/84
f 40/44/55 39/43/55 61/226/55 64/227/55
f 59/228/53 58/229/53 38/42/53 41/45/53
f 81/230/85 80/231/85 57/61/85 60/64/85
f 96/100/86 95/99/86 103/116/86 107/120/86
f 87/91/87 86/90/87 109/122/87 105/118/87
f 93/97/88 92/96/88 108/121/88 113/232/88
f 100/104/89 99/103/89 111/233/89 110/123/89
f 90/149/90 89/136/90 114/135/90 117/146/90
f 115/142/91 112/133/91 98/132/91 44/143/91
f 106/234/92 116/235/92 43/236/92 42/237/92
f 97/238/93 91/239/93 118/240/93 104/241/93
f 102/242/17 101/105/17 124/175/17 123/174/17
f 21/243/12 25/244/12 206/185/12 205/192/12
f 18/245/12 21/243/12 205/192/12 207/191/12
f 36/246/12 18/245/12 207/191/12 208/181/12
f 20/247/12 209/248/12 19/249/12 210/250/12
f 209/248/12 37/251/12 211/180/12 19/249/12
f 24/252/12 20/247/12 210/250/12 212/186/12
f 25/244/12 24/252/12 212/186/12 206/185/12
f 37/251/12 36/246/12 208/181/12 211/180/12
f 213/253/12 214/254/12 215/255/12 216/256/12
f 216/256/12 215/255/12 220/257/12 217/258/12
f 218/259/12 219/260/12 214/254/12 213/253/12
f 209/261/5 20/18/5 215/21/5 214/262/5
f 21/263/11 18/264/94 213/265/94 216/266/11
f 24/267/6 25/38/10 217/41/10 220/268/6
f 37/269/8 209/261/5 214/262/5 219/270/8
f 18/271/94 36/24/7 218/27/7 213/272/94
f 119/273/18 120/274/18 122/219/18 121/218/18
f 105/275/17 109/276/17 125/277/17 126/278/17
f 127/279/20 128/280/20 129/281/20 130/282/20 131/283/20
f 107/284/1 103/285/1 132/286/1 133/287/1
f 112/133/1 115/142/1 134/288/1 135/289/1
f 104/241/3 118/240/3 136/290/3 137/291/3
f 116/235/3 106/234/3 138/292/3 139/293/3
f 110/294/5 111/295/5 140/296/5 141/297/5
f 117/146/17 114/135/17 142/298/17 143/299/17
f 113/300/5 108/301/5 144/302/5 145/303/5
f 129/281/20 146/304/20 147/305/20 148/306/20 130/282/20
f 149/307/17 150/308/17 151/309/17 152/310/17
f 153/311/3 154/312/3 155/313/3 156/314/3
f 157/315/5 158/316/5 159/317/5 160/318/5
f 161/319/5 162/320/5 163/321/5 164/322/5
f 165/323/1 166/324/1 167/325/1 168/326/1
f 169/327/17 170/328/17 171/329/17 172/330/17
f 173/331/20 174/332/20 175/333/20 176/334/20
f 177/335/13 178/336/13 179/337/13 180/338/13 181/339/13
f 182/340/1 183/341/1 184/342/1 185/343/1
f 186/344/13 187/345/13 188/346/13 189/347/13
f 190/348/20 191/349/20 127/279/20 131/283/20 192/350/20
f 193/351/13 194/352/95 195/353/13 196/354/13 197/355/13
f 195/353/13 198/356/13 177/335/13 181/339/13 196/354/13
f 179/337/13 199/357/13 193/351/13 197/355/13 180/338/13
f 200/358/3 201/359/3 202/360/3 203/361/3
f 147/305/20 204/362/96 190/348/20 192/350/20 148/306/20
f 149/307/38 154/363/38 129/364/38 128/365/38
f 150/308/34 127/366/34 191/367/34 161/368/34
f 182/340/33 158/369/33 179/370/33 178/371/33
f 183/341/37 177/372/37 198/373/37 200/374/37
f 153/375/27 166/376/27 147/305/27 146/304/27
f 201/377/28 195/353/28 194/352/28 169/378/28
f 165/379/29 162/380/29 190/348/29 204/362/29
f 170/381/30 193/351/30 199/357/30 157/382/30
f 130/383/97 144/384/97 133/385/97
f 132/386/98 137/291/98 131/387/98
f 180/388/99 138/292/99 126/389/99
f 125/390/100 141/391/100 181/392/100
f 148/393/101 142/298/101 145/394/101
f 140/395/102 135/289/102 196/396/102
f 192/397/103 136/398/103 143/299/103
f 134/288/104 139/399/104 197/400/104
f 152/310/103 173/401/103 155/402/103
f 151/309/105 164/403/105 174/404/105
f 185/343/106 186/405/106 159/406/106
f 184/342/104 203/407/104 187/408/104
f 156/314/98 176/409/98 167/410/98
f 202/360/99 172/411/99 188/412/99
f 168/413/97 175/414/97 163/415/97
f 171/416/100 160/417/100 189/418/100
f 133/419/86 132/420/86 131/283/86 130/282/86
f 126/421/87 125/422/87 181/339/87 180/338/87
f 145/423/88 144/424/88 130/282/88 148/306/88
f 141/425/89 140/426/89 196/354/89 181/339/89
f 143/299/90 142/298/90 148/393/90 192/397/90
f 197/400/91 196/396/91 135/289/91 134/288/91
f 180/388/92 197/427/92 139/293/92 138/292/92
f 137/291/93 136/290/93 192/428/93 131/387/93
f 110/429/6 141/430/6 125/277/6 109/276/6
f 138/292/69 106/234/69 105/431/69 126/389/69
f 134/432/71 115/433/71 116/235/71 139/293/71
f 113/134/6 145/394/6 142/298/6 114/135/6
f 136/290/69 118/240/69 117/434/69 143/435/69
f 107/284/8 133/287/8 144/436/8 108/437/8
f 104/241/71 137/291/71 132/386/71 103/438/71
f 140/395/8 111/130/8 112/133/8 135/289/8
f 128/365/90 127/366/90 150/308/90 149/307/90
f 178/371/91 177/372/91 183/341/91 182/340/91
f 146/439/93 129/440/93 154/312/93 153/311/93
f 198/441/92 195/442/92 201/359/92 200/358/92
f 204/362/86 147/305/86 166/376/86 165/379/86
f 170/381/87 169/378/87 194/352/87 193/351/87
f 158/443/89 157/382/89 199/357/89 179/337/89
f 191/349/88 190/348/88 162/380/88 161/444/88
f 152/310/90 151/309/90 174/404/90 173/401/90
f 185/343/91 184/342/91 187/408/91 186/405/91
f 156/314/93 155/313/93 173/445/93 176/409/93
f 203/361/92 202/360/92 188/412/92 187/446/92
f 168/447/86 167/448/86 176/334/86 175/333/86
f 189/347/87 188/346/87 172/449/87 171/450/87
f 186/344/89 189/347/89 160/451/89 159/452/89
f 164/453/88 163/454/88 175/333/88 174/332/88
f 149/455/69 152/456/69 155/313/69 154/312/69
f 167/410/71 166/457/71 153/311/71 156/314/71
f 161/368/6 164/403/6 151/309/6 150/308/6
f 165/323/8 168/326/8 163/458/8 162/459/8
f 157/460/6 160/461/6 171/329/6 170/328/6
f 202/360/69 201/359/69 169/462/69 172/411/69
f 184/463/71 183/464/71 200/358/71 203/361/71
f 159/406/8 158/369/8 182/340/8 185/343/8
f 221/465/107 222/466/107 223/467/107 224/468/107
f 225/469/108 226/470/108 227/471/108 228/472/108
f 229/473/109 230/474/109 231/475/109 232/476/109
f 233/477/110 234/478/110 235/479/110 236/480/110
f 237/481/111 238/482/111 239/483/111 240/484/111
f 241/485/112 242/486/112 243/487/112 244/488/112
f 245/489/113 246/490/113 247/491/113 248/492/113
f 249/493/114 250/494/114 251/495/114 252/496/114
f 253/497/115 254/498/115 255/499/115 256/500/115
f 257/501/116 258/502/116 259/503/116 260/504/116
f 261/505/117 262/506/117 263/507/117 264/508/117
f 265/509/118 266/510/118 267/511/118 268/512/118
f 269/513/119 270/514/119 271/515/119 272/516/119
f 273/517/120 274/518/120 275/519/120 276/520/120
f 277/521/121 278/522/121 279/523/121 280/524/121
f 281/525/122 282/526/122 283/527/122 284/528/122
f 285/529/108 286/530/108 287/531/108 288/532/108
f 289/533/107 290/534/107 291/535/107 292/536/107
f 293/537/110 294/538/110 295/539/110 296/540/110
f 297/541/111 298/542/111 299/543/111 300/544/111
f 301/545/112 302/546/112 303/547/112 304/548/112
f 305/549/113 306/550/113 307/551/113 308/552/113
f 309/553/114 310/554/114 311/555/114 312/556/114
f 313/557/107 314/558/107 315/559/107 316/560/107
f 317/561/112 318/562/112 319/563/112 320/564/112
f 321/565/111 322/566/111 323/567/111 324/568/111
f 325/569/3 326/570/3 327/571/3 328/572/3 329/573/3
f 330/574/114 331/575/114 332/576/114 333/577/114
f 334/578/115 335/579/115 336/580/115 337/581/115
f 338/582/113 339/583/113 340/584/113 341/585/113
f 342/586/108 343/587/108 344/588/108 345/589/108
f 346/590/3 347/591/3 348/592/3 349/593/3 350/594/3 351/595/3 352/596/3 353/597/3
f 354/598/110 355/599/110 356/600/110 357/601/110
f 358/602/3 359/603/3 360/604/3 361/605/3 362/606/3
f 363/607/3 364/608/3 358/602/3 362/606/3 365/609/3
f 366/610/3 367/611/3 368/612/3 369/613/3 370/614/3
f 327/571/3 371/615/3 372/616/3 373/617/3 328/572/3
f 360/604/3 374/618/3 325/569/3 329/573/3 361/605/3
f 368/612/3 375/619/3 363/607/3 365/609/3 369/613/3
f 372/616/3 376/620/3 366/610/3 370/614/3 373/617/3
f 230/474/123 377/621/123 244/488/123 265/509/123
f 229/622/124 270/514/124 247/491/124 378/623/124
f 269/513/125 282/526/125 227/471/125 248/492/125
f 281/624/126 262/506/126 239/483/126 228/625/126
f 261/505/127 278/522/127 223/467/127 240/484/127
f 277/521/128 258/626/128 235/627/128 224/468/128
f 257/501/129 274/518/129 251/495/129 236/480/129
f 273/517/130 266/628/130 243/629/130 252/496/130
f 254/498/131 231/475/131 268/512/131 301/545/131
f 253/630/132 306/550/132 271/515/132 232/631/132
f 305/549/133 286/530/133 283/527/133 272/516/133
f 285/632/134 298/542/134 263/507/134 284/633/134
f 297/541/135 314/558/135 279/523/135 264/508/135
f 313/557/136 294/634/136 259/635/136 280/524/136
f 293/537/137 310/554/137 275/519/137 260/504/137
f 309/553/138 302/630/138 267/636/138 276/520/138
f 290/637/139 358/602/139 364/608/139 321/638/139
f 289/639/140 355/640/140 360/604/140 359/603/140
f 354/641/141 331/642/141 325/569/141 374/618/141
f 330/643/142 318/644/142 327/571/142 326/570/142
f 317/645/143 335/646/143 372/616/143 371/615/143
f 334/647/144 339/648/144 366/610/144 376/620/144
f 338/649/145 343/650/145 368/612/145 367/611/145
f 342/651/146 322/652/146 363/607/146 375/619/146
f 361/605/147 307/653/147 256/654/147
f 255/499/148 304/548/148 362/655/148
f 329/656/149 287/531/149 308/552/149
f 328/572/150 299/657/150 288/658/150
f 373/659/151 315/559/151 300/544/151
f 370/614/152 295/660/152 316/661/152
f 369/662/153 311/555/153 296/540/153
f 365/609/154 303/663/154 312/664/154
f 291/535/155 324/568/155 347/665/155
f 292/666/156 346/590/156 356/667/156
f 357/601/157 353/668/157 332/576/157
f 333/669/158 352/596/158 319/670/158
f 320/564/159 351/671/159 336/580/159
f 337/672/160 350/594/160 340/673/160
f 341/585/161 349/674/161 344/588/161
f 345/675/162 348/592/162 323/676/162
f 378/677/163 377/621/163 230/474/163 229/473/163
f 248/492/164 247/491/164 270/514/164 269/513/164
f 228/472/165 227/471/165 282/526/165 281/525/165
f 240/484/166 239/483/166 262/506/166 261/505/166
f 224/468/167 223/467/167 278/522/167 277/521/167
f 236/480/168 235/479/168 258/502/168 257/501/168
f 252/496/169 251/495/169 274/518/169 273/517/169
f 244/488/170 243/487/170 266/510/170 265/509/170
f 225/678/171 228/625/171 239/483/171 238/482/171
f 223/467/12 222/466/12 237/481/12 240/484/12
f 379/679/85 378/623/85 247/491/85 246/490/85
f 227/471/17 226/470/17 245/489/17 248/492/17
f 233/477/1 236/480/1 251/495/1 250/494/1
f 243/629/84 242/680/84 249/493/84 252/496/84
f 235/627/172 234/681/172 221/465/172 224/468/172
f 241/485/19 244/488/19 377/621/19 380/682/19
f 232/476/163 231/475/163 254/498/163 253/497/163
f 272/516/173 271/515/173 306/550/173 305/549/173
f 284/528/174 283/527/174 286/530/174 285/529/174
f 264/508/175 263/507/175 298/542/175 297/541/175
f 280/524/176 279/523/176 314/558/176 313/557/176
f 260/504/177 259/503/177 294/538/177 293/537/177
f 276/520/178 275/519/178 310/554/178 309/553/178
f 268/512/179 267/511/179 302/546/179 301/545/179
f 257/501/180 260/504/180 275/519/180 274/518/180
f 267/636/181 266/628/181 273/517/181 276/520/181
f 261/505/182 264/508/182 279/523/182 278/522/182
f 259/635/183 258/626/183 277/521/183 280/524/183
f 269/513/184 272/516/184 283/527/184 282/526/184
f 263/507/185 262/506/185 281/624/185 284/633/185
f 265/509/186 268/512/186 231/475/186 230/474/186
f 271/515/187 270/514/187 229/622/187 232/631/187
f 256/654/188 255/683/188 362/606/188 361/605/188
f 308/684/189 307/653/189 361/605/189 329/573/189
f 288/658/190 287/685/190 329/573/190 328/572/190
f 300/686/191 299/657/191 328/572/191 373/617/191
f 316/661/192 315/687/192 373/617/192 370/614/192
f 296/688/193 295/660/193 370/614/193 369/613/193
f 312/664/194 311/689/194 369/613/194 365/609/194
f 304/690/195 303/663/195 365/609/195 362/606/195
f 253/630/196 256/691/196 307/551/196 306/550/196
f 287/531/17 286/530/17 305/549/17 308/552/17
f 293/537/1 296/540/1 311/555/1 310/554/1
f 303/691/197 302/630/197 309/553/197 312/556/197
f 297/541/12 300/544/12 315/559/12 314/558/12
f 295/692/172 294/634/172 313/557/172 316/560/172
f 299/543/171 298/542/171 285/632/171 288/693/171
f 301/545/19 304/548/19 255/499/19 254/498/19
f 359/603/198 358/602/198 290/637/198 289/639/198
f 374/618/193 360/604/193 355/640/193 354/641/193
f 326/570/199 325/569/199 331/642/199 330/643/199
f 371/615/195 327/571/195 318/644/195 317/645/195
f 376/620/188 372/616/188 335/646/188 334/647/188
f 367/611/200 366/610/200 339/648/200 338/649/200
f 375/619/190 368/612/190 343/650/190 342/651/190
f 364/608/201 363/607/201 322/652/201 321/638/201
f 292/666/202 291/694/202 347/591/202 346/590/202
f 357/695/203 356/667/203 346/590/203 353/597/203
f 333/669/204 332/696/204 353/597/204 352/596/204
f 320/697/205 319/670/205 352/596/205 351/595/205
f 337/672/206 336/698/206 351/595/206 350/594/206
f 341/699/207 340/673/207 350/594/207 349/593/207
f 345/675/208 344/700/208 349/593/208 348/592/208
f 324/701/209 323/676/209 348/592/209 347/591/209
f 354/598/1 357/601/1 332/576/1 331/575/1
f 319/702/210 318/703/210 330/574/210 333/577/210
f 321/565/12 324/568/12 291/535/12 290/534/12
f 356/704/211 355/705/211 289/533/211 292/536/211
f 342/706/212 345/707/212 323/567/212 322/566/212
f 334/708/213 337/709/213 340/584/213 339/583/213
f 344/588/17 343/587/17 338/582/17 341/585/17
f 336/580/19 335/579/19 317/561/19 320/564/19
f 379/710/115 380/682/115 377/621/115 378/677/115
f 381/711/107 382/712/107 383/713/107 384/714/107
f 385/715/108 386/716/108 387/717/108 388/718/108
f 389/719/109 390/720/109 391/721/109 392/722/109
f 393/723/110 394/724/110 395/725/110 396/726/110
f 397/727/111 398/728/111 399/729/111 400/730/111
f 401/731/112 402/732/112 403/733/112 404/734/112
f 405/735/113 406/736/113 407/737/113 408/738/113
f 409/739/114 410/740/114 411/741/114 412/742/114
f 413/743/115 414/744/115 415/745/115 416/746/115
f 417/747/116 418/748/116 419/749/116 420/750/116
f 421/751/117 422/752/117 423/753/117 424/754/117
f 425/755/118 426/756/118 427/757/118 428/758/118
f 429/759/119 430/760/119 431/761/119 432/762/119
f 433/763/120 434/764/120 435/765/120 436/766/120
f 437/767/121 438/768/121 439/769/121 440/770/121
f 441/771/122 442/772/122 443/773/122 444/774/122
f 445/775/108 446/776/108 447/777/108 448/778/108
f 449/779/107 450/780/107 451/781/107 452/782/107
f 453/783/110 454/784/110 455/785/110 456/786/110
f 457/787/111 458/788/111 459/789/111 460/790/111
f 461/791/112 462/792/112 463/793/112 464/794/112
f 465/795/113 466/796/113 467/797/113 468/798/113
f 469/799/114 470/800/114 471/801/114 472/802/114
f 473/803/107 474/804/107 475/805/107 476/806/107
f 477/807/112 478/808/112 479/809/112 480/810/112
f 481/811/111 482/812/111 483/813/111 484/814/111
f 485/815/3 486/816/3 487/817/3 488/818/3 489/819/3
f 490/820/114 491/821/114 492/822/114 493/823/114
f 494/824/115 495/825/115 496/826/115 497/827/115
f 498/828/113 499/829/113 500/830/113 501/831/113
f 502/832/108 503/833/108 504/834/108 505/835/108
f 506/836/3 507/837/3 508/838/3 509/839/3 510/840/3 511/841/3 512/842/3 513/843/3
f 514/844/110 515/845/110 516/846/110 517/847/110
f 518/848/112 519/849/112 520/850/112 521/851/112
f 522/852/3 523/853/3 524/854/3 525/855/3 526/856/3
f 527/857/3 528/858/3 522/852/3 526/856/3 529/859/3
f 530/860/3 531/861/3 532/862/3 533/863/3 534/864/3
f 487/817/3 535/865/3 536/866/3 537/867/3 488/818/3
f 524/854/3 538/868/3 485/815/3 489/819/3 525/855/3
f 532/862/3 539/869/3 527/857/3 529/859/3 533/863/3
f 536/866/3 540/870/3 530/860/3 534/864/3 537/867/3
f 541/871/111 542/872/111 543/873/111 544/874/111
f 545/875/110 546/876/110 547/877/110 548/878/110
f 549/879/118 550/880/118 551/881/118 552/882/118
f 553/883/108 554/884/108 555/885/108 556/886/108
f 557/887/107 558/888/107 559/889/107 560/890/107
f 561/891/115 562/892/115 563/893/115 564/894/115
f 565/895/114 566/896/114 567/897/114 568/898/114
f 569/899/113 570/900/113 571/901/113 572/902/113
f 573/903/112 574/904/112 575/905/112 576/906/112
f 577/907/122 578/908/122 579/909/122 580/910/122
f 581/911/121 582/912/121 583/913/121 584/914/121
f 585/915/109 586/916/109 587/917/109 588/918/109
f 589/919/120 590/920/120 591/921/120 592/922/120
f 593/923/119 594/924/119 595/925/119 596/926/119
f 597/927/117 598/928/117 599/929/117 600/930/117
f 601/931/116 602/932/116 603/933/116 604/934/116
f 605/935/110 606/936/110 607/937/110 608/938/110
f 609/939/111 610/940/111 611/941/111 612/942/111
f 613/943/108 614/944/108 615/945/108 616/946/108
f 617/947/107 618/948/107 619/949/107 620/950/107
f 621/951/115 622/952/115 623/953/115 624/954/115
f 625/955/114 626/956/114 627/957/114 628/958/114
f 629/959/113 630/960/113 631/961/113 632/962/113
f 633/963/111 634/964/111 635/965/111 636/966/111
f 637/967/115 638/968/115 639/969/115 640/970/115
f 641/971/107 642/972/107 643/973/107 644/974/107
f 645/975/3 646/976/3 647/977/3 648/978/3 649/979/3
f 650/980/113 651/981/113 652/982/113 653/983/113
f 654/984/112 655/985/112 656/986/112 657/987/112
f 658/988/114 659/989/114 660/990/114 661/991/114
f 662/992/110 663/993/110 664/994/110 665/995/110
f 666/996/3 667/997/3 668/998/3 669/999/3 670/1000/3 671/1001/3 672/1002/3 673/1003/3
f 674/1004/3 675/1005/3 676/1006/3 677/1007/3 678/1008/3
f 679/1009/3 680/1010/3 681/1011/3 676/1006/3 675/1005/3
f 682/1012/108 683/1013/108 684/1014/108 685/1015/108
f 686/1016/3 687/1017/3 688/1018/3 689/1019/3 690/1020/3
f 691/1021/3 649/979/3 648/978/3 692/1022/3 693/1023/3
f 694/1024/3 678/1008/3 677/1007/3 647/977/3 646/976/3
f 695/1025/3 690/1020/3 689/1019/3 681/1011/3 680/1010/3
f 696/1026/3 693/1023/3 692/1022/3 688/1018/3 687/1017/3
f 390/720/214 697/1027/214 404/734/214 425/755/214
f 389/1028/215 430/760/215 407/737/215 698/1029/215
f 429/759/125 442/772/125 387/717/125 408/738/125
f 441/1030/216 422/752/216 399/729/216 388/1031/216
f 421/751/217 438/768/217 383/713/217 400/730/217
f 437/767/218 418/1032/218 395/1033/218 384/714/218
f 417/747/219 434/764/219 411/741/219 396/726/219
f 433/763/220 426/1034/220 403/1035/220 412/742/220
f 414/744/221 391/721/221 428/758/221 461/791/221
f 413/1036/222 466/796/222 431/761/222 392/1037/222
f 465/795/133 446/776/133 443/773/133 432/762/133
f 445/1038/223 458/788/223 423/753/223 444/1039/223
f 457/787/224 474/804/224 439/769/224 424/754/224
f 473/803/225 454/1040/225 419/1041/225 440/770/225
f 453/783/226 470/800/226 435/765/226 420/750/226
f 469/799/227 462/1042/227 427/1043/227 436/766/227
f 450/1044/228 522/852/228 528/858/228 481/1045/228
f 449/1046/229 515/1047/229 524/854/229 523/853/229
f 514/1048/230 491/1049/230 485/815/230 538/868/230
f 490/1050/231 478/1051/231 487/817/231 486/816/231
f 477/1052/232 495/1053/232 536/866/232 535/865/232
f 494/1054/233 499/1055/233 530/860/233 540/870/233
f 498/1056/234 503/1057/234 532/862/234 531/861/234
f 502/1058/235 482/1059/235 527/857/235 539/869/235
f 525/855/236 467/1060/236 416/1061/236
f 415/745/237 464/794/237 526/1062/237
f 489/1063/238 447/777/238 468/798/238
f 488/818/239 459/1064/239 448/1065/239
f 537/1066/240 475/805/240 460/790/240
f 534/864/241 455/1067/241 476/1068/241
f 533/1069/242 471/801/242 456/786/242
f 529/859/243 463/1070/243 472/1071/243
f 451/781/151 484/814/151 507/1072/151
f 452/1073/241 506/836/241 516/1074/241
f 517/847/244 513/1075/244 492/822/244
f 493/1076/245 512/842/245 479/1077/245
f 480/810/246 511/1078/246 496/826/246
f 497/1079/247 510/840/247 500/1080/247
f 501/831/248 509/1081/248 504/834/248
f 505/1082/249 508/838/249 483/1083/249
f 552/882/214 585/915/214 562/892/214 520/850/214
f 549/1084/250 519/1085/250 567/897/250 592/922/250
f 589/919/251 566/896/251 547/877/251 604/934/251
f 601/1086/218 546/1087/218 559/889/218 584/914/218
f 581/911/217 558/888/217 543/873/217 600/930/217
f 597/927/216 542/872/216 555/1088/216 580/1089/216
f 577/907/252 554/884/252 571/901/252 596/926/252
f 593/923/253 570/900/253 563/1090/253 588/1091/253
f 576/906/221 621/951/221 586/916/221 551/881/221
f 573/1092/254 550/1093/254 591/921/254 628/958/254
f 625/955/137 590/920/137 603/933/137 608/938/137
f 605/1094/255 602/1095/255 583/913/255 620/950/255
f 617/947/224 582/912/224 599/929/224 636/966/224
f 633/963/256 598/928/256 579/1096/256 616/1097/256
f 613/943/133 578/908/133 595/925/133 632/962/133
f 629/959/257 594/924/257 587/1098/257 624/1099/257
f 612/1100/228 641/1101/228 675/1005/228 674/1004/228
f 609/1102/235 678/1008/235 694/1024/235 685/1103/235
f 682/1104/234 646/976/234 645/975/234 653/1105/234
f 650/1106/258 649/979/258 691/1021/258 640/1107/258
f 637/1108/232 693/1023/232 696/1026/232 657/1109/232
f 654/1110/259 687/1017/259 686/1016/259 661/1111/259
f 658/1112/230 690/1020/230 695/1025/230 665/1113/230
f 662/1114/260 680/1010/260 679/1009/260 644/1115/260
f 574/1116/243 627/1117/243 677/1007/243
f 676/1118/237 622/952/237 575/905/237
f 626/956/242 607/937/242 647/1119/242
f 606/1120/241 619/1121/241 648/978/241
f 618/948/240 635/965/240 692/1122/240
f 634/1123/239 615/1124/239 688/1018/239
f 614/944/238 631/961/238 689/1125/238
f 630/1126/236 623/1127/236 681/1011/236
f 611/941/151 673/1128/151 642/972/151
f 610/1129/249 684/1130/249 666/996/249
f 683/1013/248 652/982/248 667/1131/248
f 651/1132/247 639/1133/247 668/998/247
f 638/968/246 656/986/246 669/1134/246
f 655/1135/261 660/1136/261 670/1000/261
f 659/989/244 664/994/244 671/1137/244
f 663/1138/262 643/1139/262 672/1002/262
f 698/1140/163 697/1027/163 390/720/163 389/719/163
f 408/738/263 407/737/263 430/760/263 429/759/263
f 388/718/264 387/717/264 442/772/264 441/771/264
f 400/730/175 399/729/175 422/752/175 421/751/175
f 384/714/176 383/713/176 438/768/176 437/767/176
f 396/726/177 395/725/177 418/748/177 417/747/177
f 412/742/178 411/741/178 434/764/178 433/763/178
f 404/734/179 403/733/179 426/756/179 425/755/179
f 385/1141/53 388/1031/53 399/729/53 398/728/53
f 383/713/12 382/712/12 397/727/12 400/730/12
f 699/1142/85 698/1029/85 407/737/85 406/736/85
f 387/717/17 386/716/17 405/735/17 408/738/17
f 393/723/1 396/726/1 411/741/1 410/740/1
f 403/1035/84 402/1143/84 409/739/84 412/742/84
f 395/1033/55 394/1144/55 381/711/55 384/714/55
f 401/731/19 404/734/19 697/1027/19 700/1145/19
f 392/722/265 391/721/265 414/744/265 413/743/265
f 432/762/173 431/761/173 466/796/173 465/795/173
f 444/774/266 443/773/266 446/776/266 445/775/266
f 424/754/175 423/753/175 458/788/175 457/787/175
f 440/770/167 439/769/167 474/804/167 473/803/167
f 420/750/267 419/749/267 454/784/267 453/783/267
f 436/766/169 435/765/169 470/800/169 469/799/169
f 428/758/268 427/757/268 462/792/268 461/791/268
f 417/747/180 420/750/180 435/765/180 434/764/180
f 427/1043/269 426/1034/269 433/763/269 436/766/269
f 421/751/182 424/754/182 439/769/182 438/768/182
f 419/1041/270 418/1032/270 437/767/270 440/770/270
f 429/759/184 432/762/184 443/773/184 442/772/184
f 423/753/271 422/752/271 441/1030/271 444/1039/271
f 425/755/186 428/758/186 391/721/186 390/720/186
f 431/761/187 430/760/187 389/1028/187 392/1037/187
f 416/1061/188 415/1146/188 526/856/188 525/855/188
f 468/1147/200 467/1060/200 525/855/200 489/819/200
f 448/1065/272 447/1148/272 489/819/272 488/818/272
f 460/1149/201 459/1064/201 488/818/201 537/867/201
f 476/1068/198 475/1150/198 537/867/198 534/864/198
f 456/1151/273 455/1067/273 534/864/273 533/863/273
f 472/1071/199 471/1152/199 533/863/199 529/859/199
f 464/1153/195 463/1070/195 529/859/195 526/856/195
f 413/1036/85 416/1154/85 467/797/85 466/796/85
f 447/777/17 446/776/17 465/795/17 468/798/17
f 453/783/1 456/786/1 471/801/1 470/800/1
f 463/1155/84 462/1042/84 469/799/84 472/802/84
f 457/787/12 460/790/12 475/805/12 474/804/12
f 455/1156/55 454/1040/55 473/803/55 476/806/55
f 459/789/53 458/788/53 445/1038/53 448/1157/53
f 461/791/19 464/794/19 415/745/19 414/744/19
f 523/853/202 522/852/202 450/1044/202 449/1046/202
f 538/868/273 524/854/273 515/1047/273 514/1048/273
f 486/816/204 485/815/204 491/1049/204 490/1050/204
f 535/865/205 487/817/205 478/1051/205 477/1052/205
f 540/870/206 536/866/206 495/1053/206 494/1054/206
f 531/861/207 530/860/207 499/1055/207 498/1056/207
f 539/869/272 532/862/272 503/1057/272 502/1058/272
f 528/858/209 527/857/209 482/1059/209 481/1045/209
f 452/1073/198 451/1158/198 507/837/198 506/836/198
f 517/1159/193 516/1074/193 506/836/193 513/843/193
f 493/1076/274 492/1160/274 513/843/274 512/842/274
f 480/1161/275 479/1077/275 512/842/275 511/841/275
f 497/1079/188 496/1162/188 511/841/188 510/840/188
f 501/1163/200 500/1080/200 510/840/200 509/839/200
f 505/1082/272 504/1164/272 509/839/272 508/838/272
f 484/1165/209 483/1083/209 508/838/209 507/837/209
f 514/844/1 517/847/1 492/822/1 491/821/1
f 479/1166/84 478/1167/84 490/820/84 493/823/84
f 481/811/12 484/814/12 451/781/12 450/780/12
f 516/1168/55 515/1169/55 449/779/55 452/782/55
f 502/1170/53 505/1171/53 483/813/53 482/812/53
f 494/1167/85 497/1172/85 500/830/85 499/829/85
f 504/834/17 503/833/17 498/828/17 501/831/17
f 496/826/19 495/825/19 477/807/19 480/810/19
f 549/879/179 552/882/179 520/850/179 519/849/179
f 589/919/276 592/922/276 567/897/276 566/896/276
f 601/931/277 604/934/277 547/877/277 546/876/277
f 581/911/176 584/914/176 559/889/176 558/888/176
f 597/927/175 600/930/175 543/873/175 542/872/175
f 577/907/174 580/910/174 555/885/174 554/884/174
f 593/923/173 596/926/173 571/901/173 570/900/173
f 585/915/163 588/918/163 563/893/163 562/892/163
f 560/890/55 559/889/55 546/1087/55 545/1173/55
f 558/888/12 557/887/12 544/874/12 543/873/12
f 568/898/84 567/897/84 519/1085/84 518/1174/84
f 566/896/1 565/895/1 548/878/1 547/877/1
f 572/902/17 571/901/17 554/884/17 553/883/17
f 570/900/85 569/899/85 564/1175/85 563/1090/85
f 542/872/53 541/871/53 556/1176/53 555/1088/53
f 521/851/19 520/850/19 562/892/19 561/891/19
f 573/903/278 576/906/278 551/881/278 550/880/278
f 625/955/178 628/958/178 591/921/178 590/920/178
f 605/935/279 608/938/279 603/933/279 602/932/279
f 617/947/176 620/950/176 583/913/176 582/912/176
f 633/963/166 636/966/166 599/929/166 598/928/166
f 613/943/280 616/946/280 579/909/280 578/908/280
f 629/959/164 632/962/164 595/925/164 594/924/164
f 621/951/281 624/954/281 587/917/281 586/916/281
f 596/926/184 595/925/184 578/908/184 577/907/184
f 594/924/187 593/923/187 588/1091/187 587/1098/187
f 600/930/182 599/929/182 582/912/182 581/911/182
f 598/928/271 597/927/271 580/1089/271 579/1096/271
f 604/934/180 603/933/180 590/920/180 589/919/180
f 602/1095/270 601/1086/270 584/914/270 583/913/270
f 552/882/186 551/881/186 586/916/186 585/915/186
f 550/1093/269 549/1084/269 592/922/269 591/921/269
f 677/1007/195 676/1006/195 575/1177/195 574/1116/195
f 647/977/199 677/1007/199 627/1117/199 626/1178/199
f 648/978/273 647/977/273 607/1179/273 606/1120/273
f 692/1022/198 648/978/198 619/1121/198 618/1180/198
f 688/1018/201 692/1022/201 635/1181/201 634/1123/201
f 689/1019/272 688/1018/272 615/1124/272 614/1182/272
f 681/1011/200 689/1019/200 631/1183/200 630/1126/200
f 676/1006/188 681/1011/188 623/1127/188 622/1184/188
f 628/958/84 627/957/84 574/1185/84 573/1092/84
f 626/956/1 625/955/1 608/938/1 607/937/1
f 632/962/17 631/961/17 614/944/17 613/943/17
f 630/960/85 629/959/85 624/1099/85 623/1186/85
f 636/966/12 635/965/12 618/948/12 617/947/12
f 634/964/53 633/963/53 616/1097/53 615/1187/53
f 606/1188/55 605/1094/55 620/950/55 619/949/55
f 576/906/19 575/905/19 622/952/19 621/951/19
f 609/1102/209 612/1100/209 674/1004/209 678/1008/209
f 682/1104/272 685/1103/272 694/1024/272 646/976/272
f 650/1106/207 653/1105/207 645/975/207 649/979/207
f 637/1108/188 640/1107/188 691/1021/188 693/1023/188
f 654/1110/195 657/1109/195 696/1026/195 687/1017/195
f 658/1112/204 661/1111/204 686/1016/204 690/1020/204
f 662/1114/273 665/1113/273 695/1025/273 680/1010/273
f 641/1101/202 644/1115/202 679/1009/202 675/1005/202
f 666/996/209 673/1003/209 611/1189/209 610/1129/209
f 667/997/272 666/996/272 684/1130/272 683/1190/272
f 668/998/200 667/997/200 652/1191/200 651/1132/200
f 669/999/188 668/998/188 639/1133/188 638/1192/188
f 670/1000/205 669/999/205 656/1193/205 655/1135/205
f 671/1001/199 670/1000/199 660/1136/199 659/1194/199
f 672/1002/273 671/1001/273 664/1195/273 663/1138/273
f 673/1003/202 672/1002/202 643/1139/202 642/1196/202
f 653/983/17 652/982/17 683/1013/17 682/1012/17
f 651/981/196 650/980/196 640/1197/196 639/1198/196
f 612/942/12 611/941/12 642/972/12 641/971/12
f 610/940/53 609/939/53 685/1199/53 684/1200/53
f 644/974/55 643/973/55 663/1201/55 662/1202/55
f 661/991/282 660/990/282 655/1203/282 654/1204/282
f 659/989/1 658/988/1 665/995/1 664/994/1
f 638/968/19 637/967/19 657/987/19 656/986/19
f 699/1205/115 700/1145/115 697/1027/115 698/1140/115
